<svg class="main-svg" xmlns="http://www.w3.org/2000/svg" xmlns:xlink="http://www.w3.org/1999/xlink" width="700" height="500" style="" viewBox="0 0 700 500"><rect x="0" y="0" width="700" height="500" style="fill: rgb(255, 255, 255); fill-opacity: 1;"/><defs id="defs-08e3db"><g class="clips"/><g class="gradients"/><g class="patterns"/></defs><g class="bglayer"/><g class="layer-below"><g class="imagelayer"/><g class="shapelayer"/></g><g class="cartesianlayer"/><g class="polarlayer"/><g class="smithlayer"/><g class="ternarylayer"/><g class="geolayer"/><g class="funnelarealayer"/><g class="pielayer"/><g class="iciclelayer"/><g class="treemaplayer"><g class="trace treemap" style="opacity: 1;"><g class="slice cursor-pointer"><path class="surface" d="M25,30a5,5 0 0 1 5,-5L670,25a5,5 0 0 1 5,5L675,470a5,5 0 0 1 -5,5L30,475a5,5 0 0 1 -5,-5Z" style="pointer-events: none; stroke-width: 0; fill: rgb(0, 0, 0); fill-opacity: 0; stroke: rgb(0, 0, 0); stroke-opacity: 0; opacity: 100;"/><g class="slicetext"><text data-notex="1" class="slicetext" text-anchor="start" x="0" y="0" style="font-family: 'Open Sans', verdana, arial, sans-serif; font-size: 15px; fill: rgb(0, 0, 0); fill-opacity: 1; white-space: pre;" transform="translate(32.5,43)">DH Grundlagen</text></g></g><g class="slice cursor-pointer"><path class="surface" d="M32.5,60a5,5 0 0 1 5,-5L512.3823529411765,55a5,5 0 0 1 5,5L517.3823529411765,462.5a5,5 0 0 1 -5,5L37.5,467.5a5,5 0 0 1 -5,-5Z" style="pointer-events: none; stroke-width: 1; fill: rgb(163, 189, 61); fill-opacity: 1; stroke: rgb(255, 255, 255); stroke-opacity: 1; opacity: 1;"/><g class="slicetext"><text data-notex="1" class="slicetext" text-anchor="start" x="0" y="0" style="font-family: 'Open Sans', verdana, arial, sans-serif; font-size: 15px; fill: rgb(68, 68, 68); fill-opacity: 1; white-space: pre;" transform="translate(40,73)">Einführung DH</text></g></g><g class="slice cursor-pointer"><path class="surface" d="M520.3823529411765,60a5,5 0 0 1 5,-5L662.5,55a5,5 0 0 1 5,5L667.5,358.625a5,5 0 0 1 -5,5L525.3823529411765,363.625a5,5 0 0 1 -5,-5Z" style="pointer-events: none; stroke-width: 1; fill: rgb(163, 189, 61); fill-opacity: 1; stroke: rgb(255, 255, 255); stroke-opacity: 1; opacity: 1;"/><g class="slicetext"><text data-notex="1" class="slicetext" text-anchor="start" x="0" y="0" style="font-family: 'Open Sans', verdana, arial, sans-serif; font-size: 15px; fill: rgb(68, 68, 68); fill-opacity: 1; white-space: pre;" transform="translate(527.8823529411765,73)">Rechtliches</text></g></g><g class="slice cursor-pointer"><path class="surface" d="M520.3823529411765,371.625a5,5 0 0 1 5,-5L662.5,366.625a5,5 0 0 1 5,5L667.5,462.5a5,5 0 0 1 -5,5L525.3823529411765,467.5a5,5 0 0 1 -5,-5Z" style="pointer-events: none; stroke-width: 1; fill: rgb(163, 189, 61); fill-opacity: 1; stroke: rgb(255, 255, 255); stroke-opacity: 1; opacity: 1;"/><g class="slicetext"><text data-notex="1" class="slicetext" text-anchor="start" x="0" y="0" style="font-family: 'Open Sans', verdana, arial, sans-serif; font-size: 15px; fill: rgb(68, 68, 68); fill-opacity: 1; white-space: pre;" transform="translate(527.8823529411765,384.625)">Misc</text></g></g><g class="slice cursor-pointer"><path class="surface" d="M40,90a5,5 0 0 1 5,-5L141.12669683257917,85a5,5 0 0 1 5,5L146.12669683257917,203a5,5 0 0 1 -5,5L45,208a5,5 0 0 1 -5,-5Z" style="pointer-events: none; stroke-width: 1; fill: rgb(141, 174, 16); fill-opacity: 1; stroke: rgb(255, 255, 255); stroke-opacity: 1; opacity: 1;"/><g class="slicetext"><text data-notex="1" class="slicetext" text-anchor="start" x="0" y="0" style="font-family: 'Open Sans', verdana, arial, sans-serif; font-size: 15px; fill: rgb(68, 68, 68); fill-opacity: 1; white-space: pre;" transform="translate(43,99.79261795599018)scale(0.7861745303993457)"><tspan class="line" dy="0em" x="0" y="0">Begriffsdefinition</tspan><tspan class="line" dy="1.3em" x="0" y="0">DH</tspan></text></g></g><g class="slice cursor-pointer"><path class="surface" d="M40,216a5,5 0 0 1 5,-5L141.12669683257917,211a5,5 0 0 1 5,5L146.12669683257917,329a5,5 0 0 1 -5,5L45,334a5,5 0 0 1 -5,-5Z" style="pointer-events: none; stroke-width: 1; fill: rgb(141, 174, 16); fill-opacity: 1; stroke: rgb(255, 255, 255); stroke-opacity: 1; opacity: 1;"/><g class="slicetext"><text data-notex="1" class="slicetext" text-anchor="start" x="0" y="0" style="font-family: 'Open Sans', verdana, arial, sans-serif; font-size: 15px; fill: rgb(68, 68, 68); fill-opacity: 1; white-space: pre;" transform="translate(43.41557124496012,220.23356867440182)scale(0.4155712449601211)"><tspan class="line" dy="0em" x="0" y="0">Beispiele Fragestellungen</tspan><tspan class="line" dy="1.3em" x="0" y="0">- Fächer: Literaturwissenschaft,</tspan><tspan class="line" dy="2.6em" x="0" y="0">Editionsphilologie,</tspan><tspan class="line" dy="3.9000000000000004em" x="0" y="0">Linguistik, Geschichte,</tspan><tspan class="line" dy="5.2em" x="0" y="0">Kunstgeschichte,</tspan><tspan class="line" dy="6.5em" x="0" y="0">Archäologie, Musik,</tspan><tspan class="line" dy="7.800000000000001em" x="0" y="0">Medienwissenschaft</tspan></text></g></g><g class="slice cursor-pointer"><path class="surface" d="M40,342a5,5 0 0 1 5,-5L141.12669683257917,337a5,5 0 0 1 5,5L146.12669683257917,455a5,5 0 0 1 -5,5L45,460a5,5 0 0 1 -5,-5Z" style="pointer-events: none; stroke-width: 1; fill: rgb(141, 174, 16); fill-opacity: 1; stroke: rgb(255, 255, 255); stroke-opacity: 1; opacity: 1;"/><g class="slicetext"><text data-notex="1" class="slicetext" text-anchor="start" x="0" y="0" style="font-family: 'Open Sans', verdana, arial, sans-serif; font-size: 15px; fill: rgb(68, 68, 68); fill-opacity: 1; white-space: pre;" transform="translate(43.54939202651621,348.2408803977431)scale(0.5493920265162094)"><tspan class="line" dy="0em" x="0" y="0">Beispiele Tools</tspan><tspan class="line" dy="1.3em" x="0" y="0">&amp; Methoden: Digitale</tspan><tspan class="line" dy="2.6em" x="0" y="0">Editionen, Digitale</tspan><tspan class="line" dy="3.9000000000000004em" x="0" y="0">Archive, Korpusanalyse,</tspan><tspan class="line" dy="5.2em" x="0" y="0">Oral History, GIS,</tspan><tspan class="line" dy="6.5em" x="0" y="0">VR, 3D-Design, digitale</tspan><tspan class="line" dy="7.800000000000001em" x="0" y="0">Filmanalyse</tspan></text></g></g><g class="slice cursor-pointer"><path class="surface" d="M149.12669683257917,90a5,5 0 0 1 5,-5L262.3785822021116,85a5,5 0 0 1 5,5L267.3785822021116,190.4a5,5 0 0 1 -5,5L154.12669683257917,195.4a5,5 0 0 1 -5,-5Z" style="pointer-events: none; stroke-width: 1; fill: rgb(141, 174, 16); fill-opacity: 1; stroke: rgb(255, 255, 255); stroke-opacity: 1; opacity: 1;"/><g class="slicetext"><text data-notex="1" class="slicetext" text-anchor="start" x="0" y="0" style="font-family: 'Open Sans', verdana, arial, sans-serif; font-size: 15px; fill: rgb(68, 68, 68); fill-opacity: 1; white-space: pre;" transform="translate(152.12669683257917,96.94066290174655)scale(0.5960441934497698)"><tspan class="line" dy="0em" x="0" y="0">DH &amp; Ich ("Wofür</tspan><tspan class="line" dy="1.3em" x="0" y="0">brauche ich persönlich</tspan><tspan class="line" dy="2.6em" x="0" y="0">DH-Methoden in meinem</tspan><tspan class="line" dy="3.9000000000000004em" x="0" y="0">Studium?")</tspan></text></g></g><g class="slice cursor-pointer"><path class="surface" d="M270.3785822021116,90a5,5 0 0 1 5,-5L383.63046757164403,85a5,5 0 0 1 5,5L388.63046757164403,190.4a5,5 0 0 1 -5,5L275.3785822021116,195.4a5,5 0 0 1 -5,-5Z" style="pointer-events: none; stroke-width: 1; fill: rgb(141, 174, 16); fill-opacity: 1; stroke: rgb(255, 255, 255); stroke-opacity: 1; opacity: 1;"/><g class="slicetext"><text data-notex="1" class="slicetext" text-anchor="start" x="0" y="0" style="font-family: 'Open Sans', verdana, arial, sans-serif; font-size: 15px; fill: rgb(68, 68, 68); fill-opacity: 1; white-space: pre;" transform="translate(273.3785822021116,99.9735344394168)scale(0.7982356292944528)"><tspan class="line" dy="0em" x="0" y="0">Datenverarbeitung</tspan><tspan class="line" dy="1.3em" x="0" y="0">&amp; -organisation:</tspan><tspan class="line" dy="2.6em" x="0" y="0">Datenbanken</tspan></text></g></g><g class="slice cursor-pointer"><path class="surface" d="M391.63046757164403,90a5,5 0 0 1 5,-5L504.88235294117646,85a5,5 0 0 1 5,5L509.88235294117646,190.4a5,5 0 0 1 -5,5L396.63046757164403,195.4a5,5 0 0 1 -5,-5Z" style="pointer-events: none; stroke-width: 1; fill: rgb(141, 174, 16); fill-opacity: 1; stroke: rgb(255, 255, 255); stroke-opacity: 1; opacity: 1;"/><g class="slicetext"><text data-notex="1" class="slicetext" text-anchor="start" x="0" y="0" style="font-family: 'Open Sans', verdana, arial, sans-serif; font-size: 15px; fill: rgb(68, 68, 68); fill-opacity: 1; white-space: pre;" transform="translate(394.63046757164403,99.9735344394168)scale(0.7982356292944528)"><tspan class="line" dy="0em" x="0" y="0">Datenverarbeitung</tspan><tspan class="line" dy="1.3em" x="0" y="0">&amp; -organisation:</tspan><tspan class="line" dy="2.6em" x="0" y="0">Metadaten (Typen</tspan><tspan class="line" dy="3.9000000000000004em" x="0" y="0">&amp; Standards)</tspan></text></g></g><g class="slice cursor-pointer"><path class="surface" d="M149.12669683257917,203.4a5,5 0 0 1 5,-5L245.05688429217838,198.4a5,5 0 0 1 5,5L250.05688429217838,322.70000000000005a5,5 0 0 1 -5,5L154.12669683257917,327.70000000000005a5,5 0 0 1 -5,-5Z" style="pointer-events: none; stroke-width: 1; fill: rgb(141, 174, 16); fill-opacity: 1; stroke: rgb(255, 255, 255); stroke-opacity: 1; opacity: 1;"/><g class="slicetext"><text data-notex="1" class="slicetext" text-anchor="start" x="0" y="0" style="font-family: 'Open Sans', verdana, arial, sans-serif; font-size: 15px; fill: rgb(68, 68, 68); fill-opacity: 1; white-space: pre;" transform="translate(152.74798039914162,210.71925349843698)scale(0.6212835665624654)"><tspan class="line" dy="0em" x="0" y="0">Digitalisierung</tspan><tspan class="line" dy="1.3em" x="0" y="0">- 3D Digitalisierung,</tspan><tspan class="line" dy="2.6em" x="0" y="0">AR, VR (Plastiken,</tspan><tspan class="line" dy="3.9000000000000004em" x="0" y="0">Gebäudemodelle)</tspan></text></g></g><g class="slice cursor-pointer"><path class="surface" d="M149.12669683257917,335.70000000000005a5,5 0 0 1 5,-5L245.05688429217838,330.70000000000005a5,5 0 0 1 5,5L250.05688429217838,455.00000000000006a5,5 0 0 1 -5,5L154.12669683257917,460.00000000000006a5,5 0 0 1 -5,-5Z" style="pointer-events: none; stroke-width: 1; fill: rgb(141, 174, 16); fill-opacity: 1; stroke: rgb(255, 255, 255); stroke-opacity: 1; opacity: 1;"/><g class="slicetext"><text data-notex="1" class="slicetext" text-anchor="start" x="0" y="0" style="font-family: 'Open Sans', verdana, arial, sans-serif; font-size: 15px; fill: rgb(68, 68, 68); fill-opacity: 1; white-space: pre;" transform="translate(152.7917797003859,343.6762430171008)scale(0.6650828678067159)"><tspan class="line" dy="0em" x="0" y="0">Digitalisierung</tspan><tspan class="line" dy="1.3em" x="0" y="0">- Bilder als digitale</tspan><tspan class="line" dy="2.6em" x="0" y="0">Daten (Raster &amp;</tspan><tspan class="line" dy="3.9000000000000004em" x="0" y="0">Vektorgrafiken)</tspan></text></g></g><g class="slice cursor-pointer"><path class="surface" d="M253.05688429217838,203.4a5,5 0 0 1 5,-5L374.9696186166774,198.4a5,5 0 0 1 5,5L379.9696186166774,296.24a5,5 0 0 1 -5,5L258.0568842921784,301.24a5,5 0 0 1 -5,-5Z" style="pointer-events: none; stroke-width: 1; fill: rgb(141, 174, 16); fill-opacity: 1; stroke: rgb(255, 255, 255); stroke-opacity: 1; opacity: 1;"/><g class="slicetext"><text data-notex="1" class="slicetext" text-anchor="start" x="0" y="0" style="font-family: 'Open Sans', verdana, arial, sans-serif; font-size: 15px; fill: rgb(68, 68, 68); fill-opacity: 1; white-space: pre;" transform="translate(256.0568842921784,211.02728912262745)scale(0.6418192748418294)"><tspan class="line" dy="0em" x="0" y="0">Digitalisierungsverfahren</tspan><tspan class="line" dy="1.3em" x="0" y="0">Bild &amp; Text</tspan></text></g></g><g class="slice cursor-pointer"><path class="surface" d="M382.9696186166774,203.4a5,5 0 0 1 5,-5L504.88235294117646,198.4a5,5 0 0 1 5,5L509.88235294117646,296.24a5,5 0 0 1 -5,5L387.9696186166774,301.24a5,5 0 0 1 -5,-5Z" style="pointer-events: none; stroke-width: 1; fill: rgb(141, 174, 16); fill-opacity: 1; stroke: rgb(255, 255, 255); stroke-opacity: 1; opacity: 1;"/><g class="slicetext"><text data-notex="1" class="slicetext" text-anchor="start" x="0" y="0" style="font-family: 'Open Sans', verdana, arial, sans-serif; font-size: 15px; fill: rgb(68, 68, 68); fill-opacity: 1; white-space: pre;" transform="translate(385.9696186166774,214.35204473906708)scale(0.8634696492711382)">Geschichte der DH</text></g></g><g class="slice cursor-pointer"><path class="surface" d="M253.05688429217838,309.24a5,5 0 0 1 5,-5L331.6653738418444,304.24a5,5 0 0 1 5,5L336.6653738418444,455a5,5 0 0 1 -5,5L258.0568842921784,460a5,5 0 0 1 -5,-5Z" style="pointer-events: none; stroke-width: 1; fill: rgb(141, 174, 16); fill-opacity: 1; stroke: rgb(255, 255, 255); stroke-opacity: 1; opacity: 1;"/><g class="slicetext"><text data-notex="1" class="slicetext" text-anchor="start" x="0" y="0" style="font-family: 'Open Sans', verdana, arial, sans-serif; font-size: 15px; fill: rgb(68, 68, 68); fill-opacity: 1; white-space: pre;" transform="translate(256.40028468841587,312.39100594356194)scale(0.3434003962374604)">Textdaten - Zeichenkodierung</text></g></g><g class="slice cursor-pointer"><path class="surface" d="M339.6653738418444,309.24a5,5 0 0 1 5,-5L418.2738633915104,304.24a5,5 0 0 1 5,5L423.2738633915104,455a5,5 0 0 1 -5,5L344.6653738418444,460a5,5 0 0 1 -5,-5Z" style="pointer-events: none; stroke-width: 1; fill: rgb(141, 174, 16); fill-opacity: 1; stroke: rgb(255, 255, 255); stroke-opacity: 1; opacity: 1;"/><g class="slicetext"><text data-notex="1" class="slicetext" text-anchor="start" x="0" y="0" style="font-family: 'Open Sans', verdana, arial, sans-serif; font-size: 15px; fill: rgb(68, 68, 68); fill-opacity: 1; white-space: pre;" transform="translate(343.12844892399795,314.18612623230274)scale(0.463075082153517)"><tspan class="line" dy="0em" x="0" y="0">Textdaten Grundlagen</tspan><tspan class="line" dy="1.3em" x="0" y="0">-  txt, md, csv,</tspan><tspan class="line" dy="2.6em" x="0" y="0">tsv, XML, HTML,</tspan><tspan class="line" dy="3.9000000000000004em" x="0" y="0">KML, TEI</tspan></text></g></g><g class="slice cursor-pointer"><path class="surface" d="M426.2738633915104,309.24a5,5 0 0 1 5,-5L504.88235294117646,304.24a5,5 0 0 1 5,5L509.88235294117646,455a5,5 0 0 1 -5,5L431.2738633915104,460a5,5 0 0 1 -5,-5Z" style="pointer-events: none; stroke-width: 1; fill: rgb(141, 174, 16); fill-opacity: 1; stroke: rgb(255, 255, 255); stroke-opacity: 1; opacity: 1;"/><g class="slicetext"><text data-notex="1" class="slicetext" text-anchor="start" x="0" y="0" style="font-family: 'Open Sans', verdana, arial, sans-serif; font-size: 15px; fill: rgb(68, 68, 68); fill-opacity: 1; white-space: pre;" transform="translate(429.2738633915104,311.5505849321731)scale(0.28737232881153824)"><tspan class="line" dy="0em" x="0" y="0">Überblick Textdatenbanken/Korpora</tspan><tspan class="line" dy="1.3em" x="0" y="0">("Welche gibt es?",</tspan><tspan class="line" dy="2.6em" x="0" y="0">"Wie finde ich passende</tspan><tspan class="line" dy="3.9000000000000004em" x="0" y="0">Korpora/Datenbanken?")</tspan></text></g></g><g class="slice cursor-pointer"><path class="surface" d="M527.8823529411765,90a5,5 0 0 1 5,-5L655,85a5,5 0 0 1 5,5L660,168.375a5,5 0 0 1 -5,5L532.8823529411765,173.375a5,5 0 0 1 -5,-5Z" style="pointer-events: none; stroke-width: 1; fill: rgb(141, 174, 16); fill-opacity: 1; stroke: rgb(255, 255, 255); stroke-opacity: 1; opacity: 1;"/><g class="slicetext"><text data-notex="1" class="slicetext" text-anchor="start" x="0" y="0" style="font-family: 'Open Sans', verdana, arial, sans-serif; font-size: 15px; fill: rgb(68, 68, 68); fill-opacity: 1; white-space: pre;" transform="translate(530.8823529411765,98.36405933714009)scale(0.690937289142673)"><tspan class="line" dy="0em" x="0" y="0">Datenschutz, Copyright,</tspan><tspan class="line" dy="1.3em" x="0" y="0">DSGVO (in Bezug</tspan><tspan class="line" dy="2.6em" x="0" y="0">auf Webscraping)</tspan></text></g></g><g class="slice cursor-pointer"><path class="surface" d="M527.8823529411765,181.375a5,5 0 0 1 5,-5L655,176.375a5,5 0 0 1 5,5L660,259.75a5,5 0 0 1 -5,5L532.8823529411765,264.75a5,5 0 0 1 -5,-5Z" style="pointer-events: none; stroke-width: 1; fill: rgb(141, 174, 16); fill-opacity: 1; stroke: rgb(255, 255, 255); stroke-opacity: 1; opacity: 1;"/><g class="slicetext"><text data-notex="1" class="slicetext" text-anchor="start" x="0" y="0" style="font-family: 'Open Sans', verdana, arial, sans-serif; font-size: 15px; fill: rgb(68, 68, 68); fill-opacity: 1; white-space: pre;" transform="translate(530.8823529411765,194.375)">Forschungsethik</text></g></g><g class="slice cursor-pointer"><path class="surface" d="M527.8823529411765,272.75a5,5 0 0 1 5,-5L655,267.75a5,5 0 0 1 5,5L660,351.125a5,5 0 0 1 -5,5L532.8823529411765,356.125a5,5 0 0 1 -5,-5Z" style="pointer-events: none; stroke-width: 1; fill: rgb(141, 174, 16); fill-opacity: 1; stroke: rgb(255, 255, 255); stroke-opacity: 1; opacity: 1;"/><g class="slicetext"><text data-notex="1" class="slicetext" text-anchor="start" x="0" y="0" style="font-family: 'Open Sans', verdana, arial, sans-serif; font-size: 15px; fill: rgb(68, 68, 68); fill-opacity: 1; white-space: pre;" transform="translate(530.8823529411765,283.17538394668213)scale(0.8283589297788081)"><tspan class="line" dy="0em" x="0" y="0">Open Access / Open</tspan><tspan class="line" dy="1.3em" x="0" y="0">Research</tspan></text></g></g><g class="slice cursor-pointer"><path class="surface" d="M527.8823529411765,401.625a5,5 0 0 1 5,-5L655,396.625a5,5 0 0 1 5,5L660,455a5,5 0 0 1 -5,5L532.8823529411765,460a5,5 0 0 1 -5,-5Z" style="pointer-events: none; stroke-width: 1; fill: rgb(141, 174, 16); fill-opacity: 1; stroke: rgb(255, 255, 255); stroke-opacity: 1; opacity: 1;"/><g class="slicetext"><text data-notex="1" class="slicetext" text-anchor="start" x="0" y="0" style="font-family: 'Open Sans', verdana, arial, sans-serif; font-size: 15px; fill: rgb(68, 68, 68); fill-opacity: 1; white-space: pre;" transform="translate(531.4800091911765,408.58984375)scale(0.59765625)"><tspan class="line" dy="0em" x="0" y="0">Internationale Standards</tspan><tspan class="line" dy="1.3em" x="0" y="0">in der Auszeichnung</tspan><tspan class="line" dy="2.6em" x="0" y="0">von (Meta)daten</tspan><tspan class="line" dy="3.9000000000000004em" x="0" y="0">z.B. METS, MODS,</tspan><tspan class="line" dy="5.2em" x="0" y="0">TEI</tspan></text></g></g></g></g><g class="sunburstlayer"/><g class="glimages"/><defs id="topdefs-08e3db"><g class="clips"/></defs><g class="layer-above"><g class="imagelayer"/><g class="shapelayer"/></g><g class="infolayer"><g class="g-gtitle"/></g></svg>