<svg class="main-svg" xmlns="http://www.w3.org/2000/svg" xmlns:xlink="http://www.w3.org/1999/xlink" width="700" height="500" style="" viewBox="0 0 700 500"><rect x="0" y="0" width="700" height="500" style="fill: rgb(255, 255, 255); fill-opacity: 1;"/><defs id="defs-286e02"><g class="clips"/><g class="gradients"/><g class="patterns"/></defs><g class="bglayer"/><g class="layer-below"><g class="imagelayer"/><g class="shapelayer"/></g><g class="cartesianlayer"/><g class="polarlayer"/><g class="smithlayer"/><g class="ternarylayer"/><g class="geolayer"/><g class="funnelarealayer"/><g class="pielayer"/><g class="iciclelayer"/><g class="treemaplayer"><g class="trace treemap" style="opacity: 1;"><g class="slice cursor-pointer"><path class="surface" d="M25,30a5,5 0 0 1 5,-5L670,25a5,5 0 0 1 5,5L675,470a5,5 0 0 1 -5,5L30,475a5,5 0 0 1 -5,-5Z" style="pointer-events: none; stroke-width: 0; fill: rgb(0, 0, 0); fill-opacity: 0; stroke: rgb(0, 0, 0); stroke-opacity: 0; opacity: 100;"/><g class="slicetext"><text data-notex="1" class="slicetext" text-anchor="start" x="0" y="0" style="font-family: 'Open Sans', verdana, arial, sans-serif; font-size: 15px; fill: rgb(0, 0, 0); fill-opacity: 1; white-space: pre;" transform="translate(32.5,43)">DH Methoden &amp; Tools</text></g></g><g class="slice cursor-pointer"><path class="surface" d="M32.5,60a5,5 0 0 1 5,-5L370.84285714285716,55a5,5 0 0 1 5,5L375.84285714285716,265.6842105263158a5,5 0 0 1 -5,5L37.5,270.6842105263158a5,5 0 0 1 -5,-5Z" style="pointer-events: none; stroke-width: 1; fill: rgb(162, 158, 114); fill-opacity: 1; stroke: rgb(255, 255, 255); stroke-opacity: 1; opacity: 1;"/><g class="slicetext"><text data-notex="1" class="slicetext" text-anchor="start" x="0" y="0" style="font-family: 'Open Sans', verdana, arial, sans-serif; font-size: 15px; fill: rgb(68, 68, 68); fill-opacity: 1; white-space: pre;" transform="translate(40,73)">Methoden</text></g></g><g class="slice cursor-pointer"><path class="surface" d="M32.5,278.6842105263158a5,5 0 0 1 5,-5L370.84285714285716,273.6842105263158a5,5 0 0 1 5,5L375.84285714285716,462.5a5,5 0 0 1 -5,5L37.5,467.5a5,5 0 0 1 -5,-5Z" style="pointer-events: none; stroke-width: 1; fill: rgb(162, 158, 114); fill-opacity: 1; stroke: rgb(255, 255, 255); stroke-opacity: 1; opacity: 1;"/><g class="slicetext"><text data-notex="1" class="slicetext" text-anchor="start" x="0" y="0" style="font-family: 'Open Sans', verdana, arial, sans-serif; font-size: 15px; fill: rgb(68, 68, 68); fill-opacity: 1; white-space: pre;" transform="translate(41,291.6842105263158)">Tools</text></g></g><g class="slice cursor-pointer"><path class="surface" d="M378.84285714285716,60a5,5 0 0 1 5,-5L516.6714285714286,55a5,5 0 0 1 5,5L521.6714285714286,306.6875a5,5 0 0 1 -5,5L383.84285714285716,311.6875a5,5 0 0 1 -5,-5Z" style="pointer-events: none; stroke-width: 1; fill: rgb(162, 158, 114); fill-opacity: 1; stroke: rgb(255, 255, 255); stroke-opacity: 1; opacity: 1;"/><g class="slicetext"><text data-notex="1" class="slicetext" text-anchor="start" x="0" y="0" style="font-family: 'Open Sans', verdana, arial, sans-serif; font-size: 15px; fill: rgb(68, 68, 68); fill-opacity: 1; white-space: pre;" transform="translate(386.34285714285716,73)">KI</text></g></g><g class="slice cursor-pointer"><path class="surface" d="M524.6714285714286,60a5,5 0 0 1 5,-5L662.5,55a5,5 0 0 1 5,5L667.5,306.6875a5,5 0 0 1 -5,5L529.6714285714286,311.6875a5,5 0 0 1 -5,-5Z" style="pointer-events: none; stroke-width: 1; fill: rgb(162, 158, 114); fill-opacity: 1; stroke: rgb(255, 255, 255); stroke-opacity: 1; opacity: 1;"/><g class="slicetext"><text data-notex="1" class="slicetext" text-anchor="start" x="0" y="0" style="font-family: 'Open Sans', verdana, arial, sans-serif; font-size: 15px; fill: rgb(68, 68, 68); fill-opacity: 1; white-space: pre;" transform="translate(532.1714285714286,73)">Nicht-Text-Daten</text></g></g><g class="slice cursor-pointer"><path class="surface" d="M378.84285714285716,319.6875a5,5 0 0 1 5,-5L565.2809523809524,314.6875a5,5 0 0 1 5,5L570.2809523809524,462.5a5,5 0 0 1 -5,5L383.84285714285716,467.5a5,5 0 0 1 -5,-5Z" style="pointer-events: none; stroke-width: 1; fill: rgb(162, 158, 114); fill-opacity: 1; stroke: rgb(255, 255, 255); stroke-opacity: 1; opacity: 1;"/><g class="slicetext"><text data-notex="1" class="slicetext" text-anchor="start" x="0" y="0" style="font-family: 'Open Sans', verdana, arial, sans-serif; font-size: 15px; fill: rgb(68, 68, 68); fill-opacity: 1; white-space: pre;" transform="translate(386.34285714285716,332.6875)">Datenbanken</text></g></g><g class="slice cursor-pointer"><path class="surface" d="M573.2809523809524,319.6875a5,5 0 0 1 5,-5L662.5,314.6875a5,5 0 0 1 5,5L667.5,462.5a5,5 0 0 1 -5,5L578.2809523809524,467.5a5,5 0 0 1 -5,-5Z" style="pointer-events: none; stroke-width: 1; fill: rgb(162, 158, 114); fill-opacity: 1; stroke: rgb(255, 255, 255); stroke-opacity: 1; opacity: 1;"/><g class="slicetext"><text data-notex="1" class="slicetext" text-anchor="start" x="0" y="0" style="font-family: 'Open Sans', verdana, arial, sans-serif; font-size: 15px; fill: rgb(68, 68, 68); fill-opacity: 1; white-space: pre;" transform="translate(580.7809523809524,326.6631031764765)scale(0.5983735450984359)">Digitale Editionen</text></g></g><g class="slice cursor-pointer"><path class="surface" d="M40,90a5,5 0 0 1 5,-5L98.26857142857143,85a5,5 0 0 1 5,5L103.26857142857143,167.5921052631579a5,5 0 0 1 -5,5L45,172.5921052631579a5,5 0 0 1 -5,-5Z" style="pointer-events: none; stroke-width: 1; fill: rgb(140, 135, 81); fill-opacity: 1; stroke: rgb(255, 255, 255); stroke-opacity: 1; opacity: 1;"/><g class="slicetext"><text data-notex="1" class="slicetext" text-anchor="start" x="0" y="0" style="font-family: 'Open Sans', verdana, arial, sans-serif; font-size: 15px; fill: rgb(68, 68, 68); fill-opacity: 1; white-space: pre;" transform="translate(43,93.82083944641911)scale(0.38805596309460794)"><tspan class="line" dy="0em" x="0" y="0">Digitalisierung:</tspan><tspan class="line" dy="1.3em" x="0" y="0">Frameworks (bspw.</tspan><tspan class="line" dy="2.6em" x="0" y="0">IIIF)</tspan></text></g></g><g class="slice cursor-pointer"><path class="surface" d="M40,180.5921052631579a5,5 0 0 1 5,-5L98.26857142857143,175.5921052631579a5,5 0 0 1 5,5L103.26857142857143,258.1842105263158a5,5 0 0 1 -5,5L45,263.1842105263158a5,5 0 0 1 -5,-5Z" style="pointer-events: none; stroke-width: 1; fill: rgb(140, 135, 81); fill-opacity: 1; stroke: rgb(255, 255, 255); stroke-opacity: 1; opacity: 1;"/><g class="slicetext"><text data-notex="1" class="slicetext" text-anchor="start" x="0" y="0" style="font-family: 'Open Sans', verdana, arial, sans-serif; font-size: 15px; fill: rgb(68, 68, 68); fill-opacity: 1; white-space: pre;" transform="translate(43,181.90123181735487)scale(0.22060843694646515)">Erstellung von TEI-Customisations</text></g></g><g class="slice cursor-pointer"><path class="surface" d="M106.26857142857143,90a5,5 0 0 1 5,-5L164.53714285714287,85a5,5 0 0 1 5,5L169.53714285714287,167.5921052631579a5,5 0 0 1 -5,5L111.26857142857143,172.5921052631579a5,5 0 0 1 -5,-5Z" style="pointer-events: none; stroke-width: 1; fill: rgb(140, 135, 81); fill-opacity: 1; stroke: rgb(255, 255, 255); stroke-opacity: 1; opacity: 1;"/><g class="slicetext"><text data-notex="1" class="slicetext" text-anchor="start" x="0" y="0" style="font-family: 'Open Sans', verdana, arial, sans-serif; font-size: 15px; fill: rgb(68, 68, 68); fill-opacity: 1; white-space: pre;" transform="translate(109.26857142857143,96.34514702055685)scale(0.5563431347037905)">Graphanalyse</text></g></g><g class="slice cursor-pointer"><path class="surface" d="M106.26857142857143,180.5921052631579a5,5 0 0 1 5,-5L164.53714285714287,175.5921052631579a5,5 0 0 1 5,5L169.53714285714287,258.1842105263158a5,5 0 0 1 -5,5L111.26857142857143,263.1842105263158a5,5 0 0 1 -5,-5Z" style="pointer-events: none; stroke-width: 1; fill: rgb(140, 135, 81); fill-opacity: 1; stroke: rgb(255, 255, 255); stroke-opacity: 1; opacity: 1;"/><g class="slicetext"><text data-notex="1" class="slicetext" text-anchor="start" x="0" y="0" style="font-family: 'Open Sans', verdana, arial, sans-serif; font-size: 15px; fill: rgb(68, 68, 68); fill-opacity: 1; white-space: pre;" transform="translate(109.26857142857143,183.9557958554924)scale(0.3575793728222997)">Information Retrieval</text></g></g><g class="slice cursor-pointer"><path class="surface" d="M172.53714285714287,90a5,5 0 0 1 5,-5L230.80571428571432,85a5,5 0 0 1 5,5L235.80571428571432,167.5921052631579a5,5 0 0 1 -5,5L177.53714285714287,172.5921052631579a5,5 0 0 1 -5,-5Z" style="pointer-events: none; stroke-width: 1; fill: rgb(140, 135, 81); fill-opacity: 1; stroke: rgb(255, 255, 255); stroke-opacity: 1; opacity: 1;"/><g class="slicetext"><text data-notex="1" class="slicetext" text-anchor="start" x="0" y="0" style="font-family: 'Open Sans', verdana, arial, sans-serif; font-size: 15px; fill: rgb(68, 68, 68); fill-opacity: 1; white-space: pre;" transform="translate(175.53714285714287,91.99693410188503)scale(0.26646227345900203)">Kollation (Editionsphilologie)</text></g></g><g class="slice cursor-pointer"><path class="surface" d="M172.53714285714287,180.5921052631579a5,5 0 0 1 5,-5L230.80571428571432,175.5921052631579a5,5 0 0 1 5,5L235.80571428571432,258.1842105263158a5,5 0 0 1 -5,5L177.53714285714287,263.1842105263158a5,5 0 0 1 -5,-5Z" style="pointer-events: none; stroke-width: 1; fill: rgb(140, 135, 81); fill-opacity: 1; stroke: rgb(255, 255, 255); stroke-opacity: 1; opacity: 1;"/><g class="slicetext"><text data-notex="1" class="slicetext" text-anchor="start" x="0" y="0" style="font-family: 'Open Sans', verdana, arial, sans-serif; font-size: 15px; fill: rgb(68, 68, 68); fill-opacity: 1; white-space: pre;" transform="translate(175.53714285714287,183.0002056938369)scale(0.2938733620452672)">Named Entity Recognition</text></g></g><g class="slice cursor-pointer"><path class="surface" d="M238.80571428571432,90a5,5 0 0 1 5,-5L297.07428571428574,85a5,5 0 0 1 5,5L302.07428571428574,167.5921052631579a5,5 0 0 1 -5,5L243.80571428571432,172.5921052631579a5,5 0 0 1 -5,-5Z" style="pointer-events: none; stroke-width: 1; fill: rgb(140, 135, 81); fill-opacity: 1; stroke: rgb(255, 255, 255); stroke-opacity: 1; opacity: 1;"/><g class="slicetext"><text data-notex="1" class="slicetext" text-anchor="start" x="0" y="0" style="font-family: 'Open Sans', verdana, arial, sans-serif; font-size: 15px; fill: rgb(68, 68, 68); fill-opacity: 1; white-space: pre;" transform="translate(241.80571428571432,94.623834767642)scale(0.4415889845094664)">Network Analysis</text></g></g><g class="slice cursor-pointer"><path class="surface" d="M305.07428571428574,90a5,5 0 0 1 5,-5L363.34285714285716,85a5,5 0 0 1 5,5L368.34285714285716,167.5921052631579a5,5 0 0 1 -5,5L310.07428571428574,172.5921052631579a5,5 0 0 1 -5,-5Z" style="pointer-events: none; stroke-width: 1; fill: rgb(140, 135, 81); fill-opacity: 1; stroke: rgb(255, 255, 255); stroke-opacity: 1; opacity: 1;"/><g class="slicetext"><text data-notex="1" class="slicetext" text-anchor="start" x="0" y="0" style="font-family: 'Open Sans', verdana, arial, sans-serif; font-size: 15px; fill: rgb(68, 68, 68); fill-opacity: 1; white-space: pre;" transform="translate(308.5701175015461,95.43747680890537)scale(0.4958317872603586)">Topic Modelling</text></g></g><g class="slice cursor-pointer"><path class="surface" d="M238.80571428571432,180.5921052631579a5,5 0 0 1 5,-5L297.07428571428574,175.5921052631579a5,5 0 0 1 5,5L302.07428571428574,258.1842105263158a5,5 0 0 1 -5,5L243.80571428571432,263.1842105263158a5,5 0 0 1 -5,-5Z" style="pointer-events: none; stroke-width: 1; fill: rgb(140, 135, 81); fill-opacity: 1; stroke: rgb(255, 255, 255); stroke-opacity: 1; opacity: 1;"/><g class="slicetext"><text data-notex="1" class="slicetext" text-anchor="start" x="0" y="0" style="font-family: 'Open Sans', verdana, arial, sans-serif; font-size: 15px; fill: rgb(68, 68, 68); fill-opacity: 1; white-space: pre;" transform="translate(241.80571428571432,182.6501085530478)scale(0.27053355265932766)">Umgang mit Online-Korpora</text></g></g><g class="slice cursor-pointer"><path class="surface" d="M305.07428571428574,180.5921052631579a5,5 0 0 1 5,-5L363.34285714285716,175.5921052631579a5,5 0 0 1 5,5L368.34285714285716,258.1842105263158a5,5 0 0 1 -5,5L310.07428571428574,263.1842105263158a5,5 0 0 1 -5,-5Z" style="pointer-events: none; stroke-width: 1; fill: rgb(140, 135, 81); fill-opacity: 1; stroke: rgb(255, 255, 255); stroke-opacity: 1; opacity: 1;"/><g class="slicetext"><text data-notex="1" class="slicetext" text-anchor="start" x="0" y="0" style="font-family: 'Open Sans', verdana, arial, sans-serif; font-size: 15px; fill: rgb(68, 68, 68); fill-opacity: 1; white-space: pre;" transform="translate(308.07428571428574,184.85096552857553)scale(0.4172573510278428)"><tspan class="line" dy="0em" x="0" y="0">XML-Technologien</tspan><tspan class="line" dy="1.3em" x="0" y="0">Fortgeschritten</tspan><tspan class="line" dy="2.6em" x="0" y="0">(TEI-XML, Xquery,</tspan><tspan class="line" dy="3.9000000000000004em" x="0" y="0">XSLT, XPATH)</tspan></text></g></g><g class="slice cursor-pointer"><path class="surface" d="M40,308.6842105263158a5,5 0 0 1 5,-5L105.63174603174603,303.6842105263158a5,5 0 0 1 5,5L110.63174603174603,375.3421052631579a5,5 0 0 1 -5,5L45,380.3421052631579a5,5 0 0 1 -5,-5Z" style="pointer-events: none; stroke-width: 1; fill: rgb(140, 135, 81); fill-opacity: 1; stroke: rgb(255, 255, 255); stroke-opacity: 1; opacity: 1;"/><g class="slicetext"><text data-notex="1" class="slicetext" text-anchor="start" x="0" y="0" style="font-family: 'Open Sans', verdana, arial, sans-serif; font-size: 15px; fill: rgb(68, 68, 68); fill-opacity: 1; white-space: pre;" transform="translate(43,313.6439947316412)scale(0.4639856136883619)"><tspan class="line" dy="0em" x="0" y="0">Kartenerstellung</tspan><tspan class="line" dy="1.3em" x="0" y="0">(GIS, ArcGis, etc.)</tspan></text></g></g><g class="slice cursor-pointer"><path class="surface" d="M40,388.3421052631579a5,5 0 0 1 5,-5L105.63174603174603,383.3421052631579a5,5 0 0 1 5,5L110.63174603174603,455a5,5 0 0 1 -5,5L45,460a5,5 0 0 1 -5,-5Z" style="pointer-events: none; stroke-width: 1; fill: rgb(140, 135, 81); fill-opacity: 1; stroke: rgb(255, 255, 255); stroke-opacity: 1; opacity: 1;"/><g class="slicetext"><text data-notex="1" class="slicetext" text-anchor="start" x="0" y="0" style="font-family: 'Open Sans', verdana, arial, sans-serif; font-size: 15px; fill: rgb(68, 68, 68); fill-opacity: 1; white-space: pre;" transform="translate(43,401.2786666956269)scale(0.9957707621645995)">MaxQDA</text></g></g><g class="slice cursor-pointer"><path class="surface" d="M113.63174603174603,308.6842105263158a5,5 0 0 1 5,-5L179.26349206349207,303.6842105263158a5,5 0 0 1 5,5L184.26349206349207,375.3421052631579a5,5 0 0 1 -5,5L118.63174603174603,380.3421052631579a5,5 0 0 1 -5,-5Z" style="pointer-events: none; stroke-width: 1; fill: rgb(140, 135, 81); fill-opacity: 1; stroke: rgb(255, 255, 255); stroke-opacity: 1; opacity: 1;"/><g class="slicetext"><text data-notex="1" class="slicetext" text-anchor="start" x="0" y="0" style="font-family: 'Open Sans', verdana, arial, sans-serif; font-size: 15px; fill: rgb(68, 68, 68); fill-opacity: 1; white-space: pre;" transform="translate(116.88916290560451,310.5454636341928)scale(0.2574168738584695)"><tspan class="line" dy="0em" x="0" y="0">OCR: Tools, Python-Bibliotheken,</tspan><tspan class="line" dy="1.3em" x="0" y="0">APIs</tspan></text></g></g><g class="slice cursor-pointer"><path class="surface" d="M113.63174603174603,388.3421052631579a5,5 0 0 1 5,-5L179.26349206349207,383.3421052631579a5,5 0 0 1 5,5L184.26349206349207,455a5,5 0 0 1 -5,5L118.63174603174603,460a5,5 0 0 1 -5,-5Z" style="pointer-events: none; stroke-width: 1; fill: rgb(140, 135, 81); fill-opacity: 1; stroke: rgb(255, 255, 255); stroke-opacity: 1; opacity: 1;"/><g class="slicetext"><text data-notex="1" class="slicetext" text-anchor="start" x="0" y="0" style="font-family: 'Open Sans', verdana, arial, sans-serif; font-size: 15px; fill: rgb(68, 68, 68); fill-opacity: 1; white-space: pre;" transform="translate(116.63174603174603,396.9104030302293)scale(0.7045531844714267)">Open Refine</text></g></g><g class="slice cursor-pointer"><path class="surface" d="M187.26349206349207,308.6842105263158a5,5 0 0 1 5,-5L252.89523809523808,303.6842105263158a5,5 0 0 1 5,5L257.8952380952381,375.3421052631579a5,5 0 0 1 -5,5L192.26349206349207,380.3421052631579a5,5 0 0 1 -5,-5Z" style="pointer-events: none; stroke-width: 1; fill: rgb(140, 135, 81); fill-opacity: 1; stroke: rgb(255, 255, 255); stroke-opacity: 1; opacity: 1;"/><g class="slicetext"><text data-notex="1" class="slicetext" text-anchor="start" x="0" y="0" style="font-family: 'Open Sans', verdana, arial, sans-serif; font-size: 15px; fill: rgb(68, 68, 68); fill-opacity: 1; white-space: pre;" transform="translate(190.26349206349207,313.7736159411325)scale(0.47262702765444986)">Sonstige DH-Tools</text></g></g><g class="slice cursor-pointer"><path class="surface" d="M187.26349206349207,388.3421052631579a5,5 0 0 1 5,-5L252.89523809523808,383.3421052631579a5,5 0 0 1 5,5L257.8952380952381,455a5,5 0 0 1 -5,5L192.26349206349207,460a5,5 0 0 1 -5,-5Z" style="pointer-events: none; stroke-width: 1; fill: rgb(140, 135, 81); fill-opacity: 1; stroke: rgb(255, 255, 255); stroke-opacity: 1; opacity: 1;"/><g class="slicetext"><text data-notex="1" class="slicetext" text-anchor="start" x="0" y="0" style="font-family: 'Open Sans', verdana, arial, sans-serif; font-size: 15px; fill: rgb(68, 68, 68); fill-opacity: 1; white-space: pre;" transform="translate(191.26349206349207,401.3421052631579)">Tableau</text></g></g><g class="slice cursor-pointer"><path class="surface" d="M260.8952380952381,308.6842105263158a5,5 0 0 1 5,-5L308.1190476190476,303.6842105263158a5,5 0 0 1 5,5L313.1190476190476,401.89473684210526a5,5 0 0 1 -5,5L265.8952380952381,406.89473684210526a5,5 0 0 1 -5,-5Z" style="pointer-events: none; stroke-width: 1; fill: rgb(140, 135, 81); fill-opacity: 1; stroke: rgb(255, 255, 255); stroke-opacity: 1; opacity: 1;"/><g class="slicetext"><text data-notex="1" class="slicetext" text-anchor="start" x="0" y="0" style="font-family: 'Open Sans', verdana, arial, sans-serif; font-size: 15px; fill: rgb(68, 68, 68); fill-opacity: 1; white-space: pre;" transform="translate(264.29158372888276,312.6293950309858)scale(0.39634563364466885)"><tspan class="line" dy="0em" x="0" y="0">Trifacta/Alteryx</tspan><tspan class="line" dy="1.3em" x="0" y="0">Designer Cloud</tspan></text></g></g><g class="slice cursor-pointer"><path class="surface" d="M316.1190476190476,308.6842105263158a5,5 0 0 1 5,-5L363.34285714285716,303.6842105263158a5,5 0 0 1 5,5L368.34285714285716,401.89473684210526a5,5 0 0 1 -5,5L321.1190476190476,406.89473684210526a5,5 0 0 1 -5,-5Z" style="pointer-events: none; stroke-width: 1; fill: rgb(140, 135, 81); fill-opacity: 1; stroke: rgb(255, 255, 255); stroke-opacity: 1; opacity: 1;"/><g class="slicetext"><text data-notex="1" class="slicetext" text-anchor="start" x="0" y="0" style="font-family: 'Open Sans', verdana, arial, sans-serif; font-size: 15px; fill: rgb(68, 68, 68); fill-opacity: 1; white-space: pre;" transform="translate(319.1190476190476,310.87328417333333)scale(0.2792715764678384)"><tspan class="line" dy="0em" x="0" y="0">Umgang mit lokalen</tspan><tspan class="line" dy="1.3em" x="0" y="0">Korpustools (Antconc,</tspan><tspan class="line" dy="2.6em" x="0" y="0">etc.)</tspan></text></g></g><g class="slice cursor-pointer"><path class="surface" d="M260.8952380952381,414.89473684210526a5,5 0 0 1 5,-5L363.34285714285716,409.89473684210526a5,5 0 0 1 5,5L368.34285714285716,455a5,5 0 0 1 -5,5L265.8952380952381,460a5,5 0 0 1 -5,-5Z" style="pointer-events: none; stroke-width: 1; fill: rgb(140, 135, 81); fill-opacity: 1; stroke: rgb(255, 255, 255); stroke-opacity: 1; opacity: 1;"/><g class="slicetext"><text data-notex="1" class="slicetext" text-anchor="start" x="0" y="0" style="font-family: 'Open Sans', verdana, arial, sans-serif; font-size: 15px; fill: rgb(68, 68, 68); fill-opacity: 1; white-space: pre;" transform="translate(263.8952380952381,427.89473684210526)">Wordsmith</text></g></g><g class="slice cursor-pointer"><path class="surface" d="M386.34285714285716,90a5,5 0 0 1 5,-5L443.75714285714287,85a5,5 0 0 1 5,5L448.75714285714287,165.875a5,5 0 0 1 -5,5L391.34285714285716,170.875a5,5 0 0 1 -5,-5Z" style="pointer-events: none; stroke-width: 1; fill: rgb(140, 135, 81); fill-opacity: 1; stroke: rgb(255, 255, 255); stroke-opacity: 1; opacity: 1;"/><g class="slicetext"><text data-notex="1" class="slicetext" text-anchor="start" x="0" y="0" style="font-family: 'Open Sans', verdana, arial, sans-serif; font-size: 15px; fill: rgb(68, 68, 68); fill-opacity: 1; white-space: pre;" transform="translate(389.34285714285716,92.60250822518181)scale(0.3068338816787869)"><tspan class="line" dy="0em" x="0" y="0">(Python-)Beispielprojekt</tspan><tspan class="line" dy="1.3em" x="0" y="0">zum Ausprobieren</tspan><tspan class="line" dy="2.6em" x="0" y="0">und Anpassen</tspan></text></g></g><g class="slice cursor-pointer"><path class="surface" d="M451.75714285714287,90a5,5 0 0 1 5,-5L509.1714285714286,85a5,5 0 0 1 5,5L514.1714285714286,165.875a5,5 0 0 1 -5,5L456.75714285714287,170.875a5,5 0 0 1 -5,-5Z" style="pointer-events: none; stroke-width: 1; fill: rgb(140, 135, 81); fill-opacity: 1; stroke: rgb(255, 255, 255); stroke-opacity: 1; opacity: 1;"/><g class="slicetext"><text data-notex="1" class="slicetext" text-anchor="start" x="0" y="0" style="font-family: 'Open Sans', verdana, arial, sans-serif; font-size: 15px; fill: rgb(68, 68, 68); fill-opacity: 1; white-space: pre;" transform="translate(455.1119496855346,93.32210242587601)scale(0.35480682839173405)"><tspan class="line" dy="0em" x="0" y="0">Maschinelles Lernen:</tspan><tspan class="line" dy="1.3em" x="0" y="0">Algorithmen</tspan></text></g></g><g class="slice cursor-pointer"><path class="surface" d="M386.34285714285716,178.875a5,5 0 0 1 5,-5L443.75714285714287,173.875a5,5 0 0 1 5,5L448.75714285714287,254.75a5,5 0 0 1 -5,5L391.34285714285716,259.75a5,5 0 0 1 -5,-5Z" style="pointer-events: none; stroke-width: 1; fill: rgb(140, 135, 81); fill-opacity: 1; stroke: rgb(255, 255, 255); stroke-opacity: 1; opacity: 1;"/><g class="slicetext"><text data-notex="1" class="slicetext" text-anchor="start" x="0" y="0" style="font-family: 'Open Sans', verdana, arial, sans-serif; font-size: 15px; fill: rgb(68, 68, 68); fill-opacity: 1; white-space: pre;" transform="translate(389.34285714285716,180.9784788820817)scale(0.2735652588054467)">Mathematische Grundlagen</text></g></g><g class="slice cursor-pointer"><path class="surface" d="M451.75714285714287,178.875a5,5 0 0 1 5,-5L509.1714285714286,173.875a5,5 0 0 1 5,5L514.1714285714286,254.75a5,5 0 0 1 -5,5L456.75714285714287,259.75a5,5 0 0 1 -5,-5Z" style="pointer-events: none; stroke-width: 1; fill: rgb(140, 135, 81); fill-opacity: 1; stroke: rgb(255, 255, 255); stroke-opacity: 1; opacity: 1;"/><g class="slicetext"><text data-notex="1" class="slicetext" text-anchor="start" x="0" y="0" style="font-family: 'Open Sans', verdana, arial, sans-serif; font-size: 15px; fill: rgb(68, 68, 68); fill-opacity: 1; white-space: pre;" transform="translate(455.0663416484175,181.51298186912)scale(0.30919879127466693)">Transformer-Architektur</text></g></g><g class="slice cursor-pointer"><path class="surface" d="M386.34285714285716,267.75a5,5 0 0 1 5,-5L509.1714285714286,262.75a5,5 0 0 1 5,5L514.1714285714286,299.1875a5,5 0 0 1 -5,5L391.34285714285716,304.1875a5,5 0 0 1 -5,-5Z" style="pointer-events: none; stroke-width: 1; fill: rgb(140, 135, 81); fill-opacity: 1; stroke: rgb(255, 255, 255); stroke-opacity: 1; opacity: 1;"/><g class="slicetext"><text data-notex="1" class="slicetext" text-anchor="start" x="0" y="0" style="font-family: 'Open Sans', verdana, arial, sans-serif; font-size: 15px; fill: rgb(68, 68, 68); fill-opacity: 1; white-space: pre;" transform="translate(389.34285714285716,272.1641399896582)scale(0.42760933264388346)"><tspan class="line" dy="0em" x="0" y="0">Überblick (High</tspan><tspan class="line" dy="1.3em" x="0" y="0">Level: wie funktioniert</tspan><tspan class="line" dy="2.6em" x="0" y="0">KI/ML/Klassifikation/Generation/Bias)</tspan></text></g></g><g class="slice cursor-pointer"><path class="surface" d="M532.1714285714286,90a5,5 0 0 1 5,-5L589.5857142857143,85a5,5 0 0 1 5,5L594.5857142857143,165.875a5,5 0 0 1 -5,5L537.1714285714286,170.875a5,5 0 0 1 -5,-5Z" style="pointer-events: none; stroke-width: 1; fill: rgb(140, 135, 81); fill-opacity: 1; stroke: rgb(255, 255, 255); stroke-opacity: 1; opacity: 1;"/><g class="slicetext"><text data-notex="1" class="slicetext" text-anchor="start" x="0" y="0" style="font-family: 'Open Sans', verdana, arial, sans-serif; font-size: 15px; fill: rgb(68, 68, 68); fill-opacity: 1; white-space: pre;" transform="translate(535.5662792150981,93.92275965504312)scale(0.39485064366954126)"><tspan class="line" dy="0em" x="0" y="0">Audio (Bearbeiten,</tspan><tspan class="line" dy="1.3em" x="0" y="0">Konvertieren, etc.)</tspan></text></g></g><g class="slice cursor-pointer"><path class="surface" d="M597.5857142857143,90a5,5 0 0 1 5,-5L655,85a5,5 0 0 1 5,5L660,165.875a5,5 0 0 1 -5,5L602.5857142857143,170.875a5,5 0 0 1 -5,-5Z" style="pointer-events: none; stroke-width: 1; fill: rgb(140, 135, 81); fill-opacity: 1; stroke: rgb(255, 255, 255); stroke-opacity: 1; opacity: 1;"/><g class="slicetext"><text data-notex="1" class="slicetext" text-anchor="start" x="0" y="0" style="font-family: 'Open Sans', verdana, arial, sans-serif; font-size: 15px; fill: rgb(68, 68, 68); fill-opacity: 1; white-space: pre;" transform="translate(600.899099780525,92.70078242216077)scale(0.3133854948107183)">Audio Signal Processing</text></g></g><g class="slice cursor-pointer"><path class="surface" d="M532.1714285714286,178.875a5,5 0 0 1 5,-5L589.5857142857143,173.875a5,5 0 0 1 5,5L594.5857142857143,254.75a5,5 0 0 1 -5,5L537.1714285714286,259.75a5,5 0 0 1 -5,-5Z" style="pointer-events: none; stroke-width: 1; fill: rgb(140, 135, 81); fill-opacity: 1; stroke: rgb(255, 255, 255); stroke-opacity: 1; opacity: 1;"/><g class="slicetext"><text data-notex="1" class="slicetext" text-anchor="start" x="0" y="0" style="font-family: 'Open Sans', verdana, arial, sans-serif; font-size: 15px; fill: rgb(68, 68, 68); fill-opacity: 1; white-space: pre;" transform="translate(535.1714285714286,182.8395059786029)scale(0.39763373190685963)"><tspan class="line" dy="0em" x="0" y="0">Bild (Bearbeiten,</tspan><tspan class="line" dy="1.3em" x="0" y="0">Konvertieren, etc.)</tspan></text></g></g><g class="slice cursor-pointer"><path class="surface" d="M597.5857142857143,178.875a5,5 0 0 1 5,-5L655,173.875a5,5 0 0 1 5,5L660,254.75a5,5 0 0 1 -5,5L602.5857142857143,259.75a5,5 0 0 1 -5,-5Z" style="pointer-events: none; stroke-width: 1; fill: rgb(140, 135, 81); fill-opacity: 1; stroke: rgb(255, 255, 255); stroke-opacity: 1; opacity: 1;"/><g class="slicetext"><text data-notex="1" class="slicetext" text-anchor="start" x="0" y="0" style="font-family: 'Open Sans', verdana, arial, sans-serif; font-size: 15px; fill: rgb(68, 68, 68); fill-opacity: 1; white-space: pre;" transform="translate(600.5857142857143,183.67531570639306)scale(0.45335438042620363)">Computer Vision</text></g></g><g class="slice cursor-pointer"><path class="surface" d="M532.1714285714286,267.75a5,5 0 0 1 5,-5L655,262.75a5,5 0 0 1 5,5L660,299.1875a5,5 0 0 1 -5,5L537.1714285714286,304.1875a5,5 0 0 1 -5,-5Z" style="pointer-events: none; stroke-width: 1; fill: rgb(140, 135, 81); fill-opacity: 1; stroke: rgb(255, 255, 255); stroke-opacity: 1; opacity: 1;"/><g class="slicetext"><text data-notex="1" class="slicetext" text-anchor="start" x="0" y="0" style="font-family: 'Open Sans', verdana, arial, sans-serif; font-size: 15px; fill: rgb(68, 68, 68); fill-opacity: 1; white-space: pre;" transform="translate(535.8328102468403,275.6707251311756)scale(0.6613816754117033)"><tspan class="line" dy="0em" x="0" y="0">Video &amp; 3D (Bearbeiten,</tspan><tspan class="line" dy="1.3em" x="0" y="0">Konvertieren, etc.)</tspan></text></g></g><g class="slice cursor-pointer"><path class="surface" d="M386.34285714285716,349.6875a5,5 0 0 1 5,-5L468.06190476190477,344.6875a5,5 0 0 1 5,5L473.06190476190477,395.84375a5,5 0 0 1 -5,5L391.34285714285716,400.84375a5,5 0 0 1 -5,-5Z" style="pointer-events: none; stroke-width: 1; fill: rgb(140, 135, 81); fill-opacity: 1; stroke: rgb(255, 255, 255); stroke-opacity: 1; opacity: 1;"/><g class="slicetext"><text data-notex="1" class="slicetext" text-anchor="start" x="0" y="0" style="font-family: 'Open Sans', verdana, arial, sans-serif; font-size: 15px; fill: rgb(68, 68, 68); fill-opacity: 1; white-space: pre;" transform="translate(389.34285714285716,354.9731605598238)scale(0.4857107039882519)"><tspan class="line" dy="0em" x="0" y="0">Fortgeschritten:</tspan><tspan class="line" dy="1.3em" x="0" y="0">SQL/NoSQL, eXist-db,</tspan><tspan class="line" dy="2.6em" x="0" y="0">MongoDB, etc.</tspan></text></g></g><g class="slice cursor-pointer"><path class="surface" d="M386.34285714285716,408.84375a5,5 0 0 1 5,-5L468.06190476190477,403.84375a5,5 0 0 1 5,5L473.06190476190477,455a5,5 0 0 1 -5,5L391.34285714285716,460a5,5 0 0 1 -5,-5Z" style="pointer-events: none; stroke-width: 1; fill: rgb(140, 135, 81); fill-opacity: 1; stroke: rgb(255, 255, 255); stroke-opacity: 1; opacity: 1;"/><g class="slicetext"><text data-notex="1" class="slicetext" text-anchor="start" x="0" y="0" style="font-family: 'Open Sans', verdana, arial, sans-serif; font-size: 15px; fill: rgb(68, 68, 68); fill-opacity: 1; white-space: pre;" transform="translate(389.34285714285716,413.74957708442076)scale(0.46038847229471946)"><tspan class="line" dy="0em" x="0" y="0">Fortgeschritten:</tspan><tspan class="line" dy="1.3em" x="0" y="0">selbst aufsetzen,</tspan><tspan class="line" dy="2.6em" x="0" y="0">bearbeiten, maintainen</tspan></text></g></g><g class="slice cursor-pointer"><path class="surface" d="M476.06190476190477,349.6875a5,5 0 0 1 5,-5L557.7809523809524,344.6875a5,5 0 0 1 5,5L562.7809523809524,395.84375a5,5 0 0 1 -5,5L481.06190476190477,400.84375a5,5 0 0 1 -5,-5Z" style="pointer-events: none; stroke-width: 1; fill: rgb(140, 135, 81); fill-opacity: 1; stroke: rgb(255, 255, 255); stroke-opacity: 1; opacity: 1;"/><g class="slicetext"><text data-notex="1" class="slicetext" text-anchor="start" x="0" y="0" style="font-family: 'Open Sans', verdana, arial, sans-serif; font-size: 15px; fill: rgb(68, 68, 68); fill-opacity: 1; white-space: pre;" transform="translate(479.06190476190477,354.43047648053306)scale(0.4495317653688694)"><tspan class="line" dy="0em" x="0" y="0">Grundlagen: Excel/CSV,</tspan><tspan class="line" dy="1.3em" x="0" y="0">SQL, Zugriff auf</tspan><tspan class="line" dy="2.6em" x="0" y="0">existierende DBs/API</tspan></text></g></g><g class="slice cursor-pointer"><path class="surface" d="M476.06190476190477,408.84375a5,5 0 0 1 5,-5L557.7809523809524,403.84375a5,5 0 0 1 5,5L562.7809523809524,455a5,5 0 0 1 -5,5L481.06190476190477,460a5,5 0 0 1 -5,-5Z" style="pointer-events: none; stroke-width: 1; fill: rgb(140, 135, 81); fill-opacity: 1; stroke: rgb(255, 255, 255); stroke-opacity: 1; opacity: 1;"/><g class="slicetext"><text data-notex="1" class="slicetext" text-anchor="start" x="0" y="0" style="font-family: 'Open Sans', verdana, arial, sans-serif; font-size: 15px; fill: rgb(68, 68, 68); fill-opacity: 1; white-space: pre;" transform="translate(479.06190476190477,412.22688898675136)scale(0.35887593245009014)"><tspan class="line" dy="0em" x="0" y="0">Grundlagen: Verwalten,</tspan><tspan class="line" dy="1.3em" x="0" y="0">Zusammenfügen, Analysieren</tspan><tspan class="line" dy="2.6em" x="0" y="0">großer Datensätze</tspan></text></g></g><g class="slice cursor-pointer"><path class="surface" d="M580.7809523809524,349.6875a5,5 0 0 1 5,-5L655,344.6875a5,5 0 0 1 5,5L660,395.84375a5,5 0 0 1 -5,5L585.7809523809524,400.84375a5,5 0 0 1 -5,-5Z" style="pointer-events: none; stroke-width: 1; fill: rgb(140, 135, 81); fill-opacity: 1; stroke: rgb(255, 255, 255); stroke-opacity: 1; opacity: 1;"/><g class="slicetext"><text data-notex="1" class="slicetext" text-anchor="start" x="0" y="0" style="font-family: 'Open Sans', verdana, arial, sans-serif; font-size: 15px; fill: rgb(68, 68, 68); fill-opacity: 1; white-space: pre;" transform="translate(583.7809523809524,353.5469769685133)scale(0.3906317979008876)"><tspan class="line" dy="0em" x="0" y="0">Digitale Editionen</tspan><tspan class="line" dy="1.3em" x="0" y="0">bearbeiten/ Maintenance</tspan></text></g></g><g class="slice cursor-pointer"><path class="surface" d="M580.7809523809524,408.84375a5,5 0 0 1 5,-5L655,403.84375a5,5 0 0 1 5,5L660,455a5,5 0 0 1 -5,5L585.7809523809524,460a5,5 0 0 1 -5,-5Z" style="pointer-events: none; stroke-width: 1; fill: rgb(140, 135, 81); fill-opacity: 1; stroke: rgb(255, 255, 255); stroke-opacity: 1; opacity: 1;"/><g class="slicetext"><text data-notex="1" class="slicetext" text-anchor="start" x="0" y="0" style="font-family: 'Open Sans', verdana, arial, sans-serif; font-size: 15px; fill: rgb(68, 68, 68); fill-opacity: 1; white-space: pre;" transform="translate(583.7809523809524,415.139546732478)scale(0.5530531154985303)"><tspan class="line" dy="0em" x="0" y="0">Digitale Editionen</tspan><tspan class="line" dy="1.3em" x="0" y="0">erstellen</tspan></text></g></g></g></g><g class="sunburstlayer"/><g class="glimages"/><defs id="topdefs-286e02"><g class="clips"/></defs><g class="layer-above"><g class="imagelayer"/><g class="shapelayer"/></g><g class="infolayer"><g class="g-gtitle"/></g></svg>