<svg class="main-svg" xmlns="http://www.w3.org/2000/svg" xmlns:xlink="http://www.w3.org/1999/xlink" width="700" height="500" style="" viewBox="0 0 700 500"><rect x="0" y="0" width="700" height="500" style="fill: rgb(255, 255, 255); fill-opacity: 1;"/><defs id="defs-1f4746"><g class="clips"/><g class="gradients"/><g class="patterns"/></defs><g class="bglayer"/><g class="layer-below"><g class="imagelayer"/><g class="shapelayer"/></g><g class="cartesianlayer"/><g class="polarlayer"/><g class="smithlayer"/><g class="ternarylayer"/><g class="geolayer"/><g class="funnelarealayer"/><g class="pielayer"/><g class="iciclelayer"/><g class="treemaplayer"><g class="trace treemap" style="opacity: 1;"><g class="slice cursor-pointer"><path class="surface" d="M25,30a5,5 0 0 1 5,-5L670,25a5,5 0 0 1 5,5L675,470a5,5 0 0 1 -5,5L30,475a5,5 0 0 1 -5,-5Z" style="pointer-events: none; stroke-width: 0; fill: rgb(0, 0, 0); fill-opacity: 0; stroke: rgb(0, 0, 0); stroke-opacity: 0; opacity: 100;"/><g class="slicetext"><text data-notex="1" class="slicetext" text-anchor="start" x="0" y="0" style="font-family: 'Open Sans', verdana, arial, sans-serif; font-size: 15px; fill: rgb(0, 0, 0); fill-opacity: 1; white-space: pre;" transform="translate(32.5,43)">DH Projekt</text></g></g><g class="slice cursor-pointer"><path class="surface" d="M32.5,60a5,5 0 0 1 5,-5L662.5,55a5,5 0 0 1 5,5L667.5,462.5a5,5 0 0 1 -5,5L37.5,467.5a5,5 0 0 1 -5,-5Z" style="pointer-events: none; stroke-width: 1; fill: rgb(205, 199, 180); fill-opacity: 1; stroke: rgb(255, 255, 255); stroke-opacity: 1; opacity: 1;"/><g class="slicetext"><text data-notex="1" class="slicetext" text-anchor="start" x="0" y="0" style="font-family: 'Open Sans', verdana, arial, sans-serif; font-size: 15px; fill: rgb(68, 68, 68); fill-opacity: 1; white-space: pre;" transform="translate(40,73)">Projekt</text></g></g><g class="slice cursor-pointer"><path class="surface" d="M40,90a5,5 0 0 1 5,-5L281.2,85a5,5 0 0 1 5,5L286.2,266a5,5 0 0 1 -5,5L45,271a5,5 0 0 1 -5,-5Z" style="pointer-events: none; stroke-width: 1; fill: rgb(193, 186, 163); fill-opacity: 1; stroke: rgb(255, 255, 255); stroke-opacity: 1; opacity: 1;"/><g class="slicetext"><text data-notex="1" class="slicetext" text-anchor="start" x="0" y="0" style="font-family: 'Open Sans', verdana, arial, sans-serif; font-size: 15px; fill: rgb(68, 68, 68); fill-opacity: 1; white-space: pre;" transform="translate(44,103)"><tspan class="line" dy="0em" x="0" y="0">Anwendung der Kenntnisse</tspan><tspan class="line" dy="1.3em" x="0" y="0">in einem selbstständigen</tspan><tspan class="line" dy="2.6em" x="0" y="0">(Datenanalyse-)projekt</tspan></text></g></g><g class="slice cursor-pointer"><path class="surface" d="M40,279a5,5 0 0 1 5,-5L281.2,274a5,5 0 0 1 5,5L286.2,455a5,5 0 0 1 -5,5L45,460a5,5 0 0 1 -5,-5Z" style="pointer-events: none; stroke-width: 1; fill: rgb(193, 186, 163); fill-opacity: 1; stroke: rgb(255, 255, 255); stroke-opacity: 1; opacity: 1;"/><g class="slicetext"><text data-notex="1" class="slicetext" text-anchor="start" x="0" y="0" style="font-family: 'Open Sans', verdana, arial, sans-serif; font-size: 15px; fill: rgb(68, 68, 68); fill-opacity: 1; white-space: pre;" transform="translate(44,292)"><tspan class="line" dy="0em" x="0" y="0">Datenanalyse oder</tspan><tspan class="line" dy="1.3em" x="0" y="0">Visualisierung</tspan></text></g></g><g class="slice cursor-pointer"><path class="surface" d="M289.2,90a5,5 0 0 1 5,-5L468.1,85a5,5 0 0 1 5,5L473.1,329a5,5 0 0 1 -5,5L294.2,334a5,5 0 0 1 -5,-5Z" style="pointer-events: none; stroke-width: 1; fill: rgb(193, 186, 163); fill-opacity: 1; stroke: rgb(255, 255, 255); stroke-opacity: 1; opacity: 1;"/><g class="slicetext"><text data-notex="1" class="slicetext" text-anchor="start" x="0" y="0" style="font-family: 'Open Sans', verdana, arial, sans-serif; font-size: 15px; fill: rgb(68, 68, 68); fill-opacity: 1; white-space: pre;" transform="translate(292.2,101.23394033320419)scale(0.8822626888802791)"><tspan class="line" dy="0em" x="0" y="0">Projektorientiertes</tspan><tspan class="line" dy="1.3em" x="0" y="0">Lernen: Modellierung,</tspan><tspan class="line" dy="2.6em" x="0" y="0">Projektentwurf,</tspan><tspan class="line" dy="3.9000000000000004em" x="0" y="0">Umsetzung und Evaluation</tspan></text></g></g><g class="slice cursor-pointer"><path class="surface" d="M476.1,90a5,5 0 0 1 5,-5L655,85a5,5 0 0 1 5,5L660,329a5,5 0 0 1 -5,5L481.1,334a5,5 0 0 1 -5,-5Z" style="pointer-events: none; stroke-width: 1; fill: rgb(193, 186, 163); fill-opacity: 1; stroke: rgb(255, 255, 255); stroke-opacity: 1; opacity: 1;"/><g class="slicetext"><text data-notex="1" class="slicetext" text-anchor="start" x="0" y="0" style="font-family: 'Open Sans', verdana, arial, sans-serif; font-size: 15px; fill: rgb(68, 68, 68); fill-opacity: 1; white-space: pre;" transform="translate(479.1,103)"><tspan class="line" dy="0em" x="0" y="0">Selbständiges Arbeiten</tspan><tspan class="line" dy="1.3em" x="0" y="0">mit Datensätzen</tspan></text></g></g><g class="slice cursor-pointer"><path class="surface" d="M289.2,342a5,5 0 0 1 5,-5L655,337a5,5 0 0 1 5,5L660,455a5,5 0 0 1 -5,5L294.2,460a5,5 0 0 1 -5,-5Z" style="pointer-events: none; stroke-width: 1; fill: rgb(193, 186, 163); fill-opacity: 1; stroke: rgb(255, 255, 255); stroke-opacity: 1; opacity: 1;"/><g class="slicetext"><text data-notex="1" class="slicetext" text-anchor="start" x="0" y="0" style="font-family: 'Open Sans', verdana, arial, sans-serif; font-size: 15px; fill: rgb(68, 68, 68); fill-opacity: 1; white-space: pre;" transform="translate(292.2,355)"><tspan class="line" dy="0em" x="0" y="0">Wissenskommunikation</tspan><tspan class="line" dy="1.3em" x="0" y="0">(Vorgehen &amp; Ergebnisse</tspan><tspan class="line" dy="2.6em" x="0" y="0">nachvollziehbar</tspan><tspan class="line" dy="3.9000000000000004em" x="0" y="0">darstellen)</tspan></text></g></g></g></g><g class="sunburstlayer"/><g class="glimages"/><defs id="topdefs-1f4746"><g class="clips"/></defs><g class="layer-above"><g class="imagelayer"/><g class="shapelayer"/></g><g class="infolayer"><g class="g-gtitle"/></g></svg>