<svg class="main-svg" xmlns="http://www.w3.org/2000/svg" xmlns:xlink="http://www.w3.org/1999/xlink" width="700" height="500" style="" viewBox="0 0 700 500"><rect x="0" y="0" width="700" height="500" style="fill: rgb(255, 255, 255); fill-opacity: 1;"/><defs id="defs-5e5c0d"><g class="clips"/><g class="gradients"/><g class="patterns"/></defs><g class="bglayer"/><g class="layer-below"><g class="imagelayer"/><g class="shapelayer"/></g><g class="cartesianlayer"/><g class="polarlayer"/><g class="smithlayer"/><g class="ternarylayer"/><g class="geolayer"/><g class="funnelarealayer"/><g class="pielayer"/><g class="iciclelayer"/><g class="treemaplayer"><g class="trace treemap" style="opacity: 1;"><g class="slice cursor-pointer"><path class="surface" d="M25,30a5,5 0 0 1 5,-5L670,25a5,5 0 0 1 5,5L675,470a5,5 0 0 1 -5,5L30,475a5,5 0 0 1 -5,-5Z" style="pointer-events: none; stroke-width: 0; fill: rgb(0, 0, 0); fill-opacity: 0; stroke: rgb(0, 0, 0); stroke-opacity: 0; opacity: 100;"/><g class="slicetext"><text data-notex="1" class="slicetext" text-anchor="start" x="0" y="0" style="font-family: 'Open Sans', verdana, arial, sans-serif; font-size: 15px; fill: rgb(0, 0, 0); fill-opacity: 1; white-space: pre;" transform="translate(32.5,43)">Programmieren für DH</text></g></g><g class="slice cursor-pointer"><path class="surface" d="M32.5,60a5,5 0 0 1 5,-5L247.8,55a5,5 0 0 1 5,5L252.8,462.5a5,5 0 0 1 -5,5L37.5,467.5a5,5 0 0 1 -5,-5Z" style="pointer-events: none; stroke-width: 1; fill: rgb(196, 72, 98); fill-opacity: 1; stroke: rgb(255, 255, 255); stroke-opacity: 1; opacity: 1;"/><g class="slicetext"><text data-notex="1" class="slicetext" text-anchor="start" x="0" y="0" style="font-family: 'Open Sans', verdana, arial, sans-serif; font-size: 15px; fill: rgb(255, 255, 255); fill-opacity: 1; white-space: pre;" transform="translate(40,73)">Python Grundlagen</text></g></g><g class="slice cursor-pointer"><path class="surface" d="M255.8,60a5,5 0 0 1 5,-5L506.9875,55a5,5 0 0 1 5,5L511.9875,302.6923076923077a5,5 0 0 1 -5,5L260.8,307.6923076923077a5,5 0 0 1 -5,-5Z" style="pointer-events: none; stroke-width: 1; fill: rgb(196, 72, 98); fill-opacity: 1; stroke: rgb(255, 255, 255); stroke-opacity: 1; opacity: 1;"/><g class="slicetext"><text data-notex="1" class="slicetext" text-anchor="start" x="0" y="0" style="font-family: 'Open Sans', verdana, arial, sans-serif; font-size: 15px; fill: rgb(255, 255, 255); fill-opacity: 1; white-space: pre;" transform="translate(263.3,73)">R</text></g></g><g class="slice cursor-pointer"><path class="surface" d="M514.9875,60a5,5 0 0 1 5,-5L662.5,55a5,5 0 0 1 5,5L667.5,302.6923076923077a5,5 0 0 1 -5,5L519.9875,307.6923076923077a5,5 0 0 1 -5,-5Z" style="pointer-events: none; stroke-width: 1; fill: rgb(196, 72, 98); fill-opacity: 1; stroke: rgb(255, 255, 255); stroke-opacity: 1; opacity: 1;"/><g class="slicetext"><text data-notex="1" class="slicetext" text-anchor="start" x="0" y="0" style="font-family: 'Open Sans', verdana, arial, sans-serif; font-size: 15px; fill: rgb(255, 255, 255); fill-opacity: 1; white-space: pre;" transform="translate(522.4875,70.05919429980817)scale(0.8039462866538777)">Python Fortgeschritten</text></g></g><g class="slice cursor-pointer"><path class="surface" d="M255.8,315.6923076923077a5,5 0 0 1 5,-5L496.62,310.6923076923077a5,5 0 0 1 5,5L501.62,462.5a5,5 0 0 1 -5,5L260.8,467.5a5,5 0 0 1 -5,-5Z" style="pointer-events: none; stroke-width: 1; fill: rgb(196, 72, 98); fill-opacity: 1; stroke: rgb(255, 255, 255); stroke-opacity: 1; opacity: 1;"/><g class="slicetext"><text data-notex="1" class="slicetext" text-anchor="start" x="0" y="0" style="font-family: 'Open Sans', verdana, arial, sans-serif; font-size: 15px; fill: rgb(255, 255, 255); fill-opacity: 1; white-space: pre;" transform="translate(263.3,328.6923076923077)">Web</text></g></g><g class="slice cursor-pointer"><path class="surface" d="M504.62,315.6923076923077a5,5 0 0 1 5,-5L662.5,310.6923076923077a5,5 0 0 1 5,5L667.5,462.5a5,5 0 0 1 -5,5L509.62,467.5a5,5 0 0 1 -5,-5Z" style="pointer-events: none; stroke-width: 1; fill: rgb(196, 72, 98); fill-opacity: 1; stroke: rgb(255, 255, 255); stroke-opacity: 1; opacity: 1;"/><g class="slicetext"><text data-notex="1" class="slicetext" text-anchor="start" x="0" y="0" style="font-family: 'Open Sans', verdana, arial, sans-serif; font-size: 15px; fill: rgb(255, 255, 255); fill-opacity: 1; white-space: pre;" transform="translate(512.12,328.6923076923077)">Misc</text></g></g><g class="slice cursor-pointer"><path class="surface" d="M40,90a5,5 0 0 1 5,-5L136.15,85a5,5 0 0 1 5,5L141.15,185a5,5 0 0 1 -5,5L45,190a5,5 0 0 1 -5,-5Z" style="pointer-events: none; stroke-width: 1; fill: rgb(182, 30, 62); fill-opacity: 1; stroke: rgb(255, 255, 255); stroke-opacity: 1; opacity: 1;"/><g class="slicetext"><text data-notex="1" class="slicetext" text-anchor="start" x="0" y="0" style="font-family: 'Open Sans', verdana, arial, sans-serif; font-size: 15px; fill: rgb(255, 255, 255); fill-opacity: 1; white-space: pre;" transform="translate(43,96.94652301665035)scale(0.5964348677766895)"><tspan class="line" dy="0em" x="0" y="0">(DH) Code verstehen</tspan><tspan class="line" dy="1.3em" x="0" y="0">und anpassen</tspan></text></g></g><g class="slice cursor-pointer"><path class="surface" d="M144.15,90a5,5 0 0 1 5,-5L240.3,85a5,5 0 0 1 5,5L245.3,185a5,5 0 0 1 -5,5L149.15,190a5,5 0 0 1 -5,-5Z" style="pointer-events: none; stroke-width: 1; fill: rgb(182, 30, 62); fill-opacity: 1; stroke: rgb(255, 255, 255); stroke-opacity: 1; opacity: 1;"/><g class="slicetext"><text data-notex="1" class="slicetext" text-anchor="start" x="0" y="0" style="font-family: 'Open Sans', verdana, arial, sans-serif; font-size: 15px; fill: rgb(255, 255, 255); fill-opacity: 1; white-space: pre;" transform="translate(147.15,97.00739572034317)scale(0.6004930480228775)"><tspan class="line" dy="0em" x="0" y="0">Datenvisualisierung</tspan><tspan class="line" dy="1.3em" x="0" y="0">(matplotlib, seaborn,</tspan><tspan class="line" dy="2.6em" x="0" y="0">etc.)</tspan></text></g></g><g class="slice cursor-pointer"><path class="surface" d="M40,198a5,5 0 0 1 5,-5L136.15,193a5,5 0 0 1 5,5L141.15,293a5,5 0 0 1 -5,5L45,298a5,5 0 0 1 -5,-5Z" style="pointer-events: none; stroke-width: 1; fill: rgb(182, 30, 62); fill-opacity: 1; stroke: rgb(255, 255, 255); stroke-opacity: 1; opacity: 1;"/><g class="slicetext"><text data-notex="1" class="slicetext" text-anchor="start" x="0" y="0" style="font-family: 'Open Sans', verdana, arial, sans-serif; font-size: 15px; fill: rgb(255, 255, 255); fill-opacity: 1; white-space: pre;" transform="translate(43,202.8407099528196)scale(0.4560473301879728)"><tspan class="line" dy="0em" x="0" y="0">Grundlagen Programmieren</tspan><tspan class="line" dy="1.3em" x="0" y="0">(Kontrollfluss,</tspan><tspan class="line" dy="2.6em" x="0" y="0">Schleifen, Grundlagen</tspan><tspan class="line" dy="3.9000000000000004em" x="0" y="0">i/o, Boolsche Logik,</tspan><tspan class="line" dy="5.2em" x="0" y="0">etc.)</tspan></text></g></g><g class="slice cursor-pointer"><path class="surface" d="M144.15,198a5,5 0 0 1 5,-5L240.3,193a5,5 0 0 1 5,5L245.3,293a5,5 0 0 1 -5,5L149.15,298a5,5 0 0 1 -5,-5Z" style="pointer-events: none; stroke-width: 1; fill: rgb(182, 30, 62); fill-opacity: 1; stroke: rgb(255, 255, 255); stroke-opacity: 1; opacity: 1;"/><g class="slicetext"><text data-notex="1" class="slicetext" text-anchor="start" x="0" y="0" style="font-family: 'Open Sans', verdana, arial, sans-serif; font-size: 15px; fill: rgb(255, 255, 255); fill-opacity: 1; white-space: pre;" transform="translate(147.15,203.4287573194535)scale(0.4952504879635654)"><tspan class="line" dy="0em" x="0" y="0">Infrastruktur (IDE,</tspan><tspan class="line" dy="1.3em" x="0" y="0">Jupyter Notebooks,</tspan><tspan class="line" dy="2.6em" x="0" y="0">Colab/Pages/JupyterHub)</tspan></text></g></g><g class="slice cursor-pointer"><path class="surface" d="M40,306a5,5 0 0 1 5,-5L170.86666666666667,301a5,5 0 0 1 5,5L175.86666666666667,374a5,5 0 0 1 -5,5L45,379a5,5 0 0 1 -5,-5Z" style="pointer-events: none; stroke-width: 1; fill: rgb(182, 30, 62); fill-opacity: 1; stroke: rgb(255, 255, 255); stroke-opacity: 1; opacity: 1;"/><g class="slicetext"><text data-notex="1" class="slicetext" text-anchor="start" x="0" y="0" style="font-family: 'Open Sans', verdana, arial, sans-serif; font-size: 15px; fill: rgb(255, 255, 255); fill-opacity: 1; white-space: pre;" transform="translate(43.53081279005407,311.9621918508111)scale(0.5308127900540724)"><tspan class="line" dy="0em" x="0" y="0">Korpusanalytische</tspan><tspan class="line" dy="1.3em" x="0" y="0">Verfahren (Webscraping,</tspan><tspan class="line" dy="2.6em" x="0" y="0">Tokenisierung, Annotation,</tspan><tspan class="line" dy="3.9000000000000004em" x="0" y="0">Kookkurrenz-, Frequenzanalyse,</tspan><tspan class="line" dy="5.2em" x="0" y="0">etc.)</tspan></text></g></g><g class="slice cursor-pointer"><path class="surface" d="M40,387a5,5 0 0 1 5,-5L170.86666666666667,382a5,5 0 0 1 5,5L175.86666666666667,455a5,5 0 0 1 -5,5L45,460a5,5 0 0 1 -5,-5Z" style="pointer-events: none; stroke-width: 1; fill: rgb(182, 30, 62); fill-opacity: 1; stroke: rgb(255, 255, 255); stroke-opacity: 1; opacity: 1;"/><g class="slicetext"><text data-notex="1" class="slicetext" text-anchor="start" x="0" y="0" style="font-family: 'Open Sans', verdana, arial, sans-serif; font-size: 15px; fill: rgb(255, 255, 255); fill-opacity: 1; white-space: pre;" transform="translate(43,400)">Pandas</text></g></g><g class="slice cursor-pointer"><path class="surface" d="M178.86666666666667,306a5,5 0 0 1 5,-5L240.3,301a5,5 0 0 1 5,5L245.3,455a5,5 0 0 1 -5,5L183.86666666666667,460a5,5 0 0 1 -5,-5Z" style="pointer-events: none; stroke-width: 1; fill: rgb(182, 30, 62); fill-opacity: 1; stroke: rgb(255, 255, 255); stroke-opacity: 1; opacity: 1;"/><g class="slicetext"><text data-notex="1" class="slicetext" text-anchor="start" x="0" y="0" style="font-family: 'Open Sans', verdana, arial, sans-serif; font-size: 15px; fill: rgb(255, 255, 255); fill-opacity: 1; white-space: pre;" transform="translate(182.08673684210527,307.30105263157895)scale(0.2200701754385965)">Text (String-Methoden/-Funktionen)</text></g></g><g class="slice cursor-pointer"><path class="surface" d="M263.3,90a5,5 0 0 1 5,-5L352.975,85a5,5 0 0 1 5,5L357.975,186.09615384615384a5,5 0 0 1 -5,5L268.3,191.09615384615384a5,5 0 0 1 -5,-5Z" style="pointer-events: none; stroke-width: 1; fill: rgb(182, 30, 62); fill-opacity: 1; stroke: rgb(255, 255, 255); stroke-opacity: 1; opacity: 1;"/><g class="slicetext"><text data-notex="1" class="slicetext" text-anchor="start" x="0" y="0" style="font-family: 'Open Sans', verdana, arial, sans-serif; font-size: 15px; fill: rgb(255, 255, 255); fill-opacity: 1; white-space: pre;" transform="translate(266.3,94.45300181928441)scale(0.43020012128562773)">Datenanalyse &amp; Textmining</text></g></g><g class="slice cursor-pointer"><path class="surface" d="M263.3,199.09615384615384a5,5 0 0 1 5,-5L352.975,194.09615384615384a5,5 0 0 1 5,5L357.975,295.1923076923077a5,5 0 0 1 -5,5L268.3,300.1923076923077a5,5 0 0 1 -5,-5Z" style="pointer-events: none; stroke-width: 1; fill: rgb(182, 30, 62); fill-opacity: 1; stroke: rgb(255, 255, 255); stroke-opacity: 1; opacity: 1;"/><g class="slicetext"><text data-notex="1" class="slicetext" text-anchor="start" x="0" y="0" style="font-family: 'Open Sans', verdana, arial, sans-serif; font-size: 15px; fill: rgb(255, 255, 255); fill-opacity: 1; white-space: pre;" transform="translate(266.3,202.5478349220424)scale(0.36344540505923795)"><tspan class="line" dy="0em" x="0" y="0">Datenaufbereitung</tspan><tspan class="line" dy="1.3em" x="0" y="0">&amp; Umgang mit Fehlermeldungen</tspan></text></g></g><g class="slice cursor-pointer"><path class="surface" d="M360.975,90a5,5 0 0 1 5,-5L426.23125000000005,85a5,5 0 0 1 5,5L431.23125000000005,222.46153846153845a5,5 0 0 1 -5,5L365.975,227.46153846153845a5,5 0 0 1 -5,-5Z" style="pointer-events: none; stroke-width: 1; fill: rgb(182, 30, 62); fill-opacity: 1; stroke: rgb(255, 255, 255); stroke-opacity: 1; opacity: 1;"/><g class="slicetext"><text data-notex="1" class="slicetext" text-anchor="start" x="0" y="0" style="font-family: 'Open Sans', verdana, arial, sans-serif; font-size: 15px; fill: rgb(255, 255, 255); fill-opacity: 1; white-space: pre;" transform="translate(363.975,94.51658567504754)scale(0.4344390450031694)"><tspan class="line" dy="0em" x="0" y="0">Datenvisualisierung</tspan><tspan class="line" dy="1.3em" x="0" y="0">(ggplot)</tspan></text></g></g><g class="slice cursor-pointer"><path class="surface" d="M434.23125000000005,90a5,5 0 0 1 5,-5L499.48750000000007,85a5,5 0 0 1 5,5L504.48750000000007,222.46153846153845a5,5 0 0 1 -5,5L439.23125000000005,227.46153846153845a5,5 0 0 1 -5,-5Z" style="pointer-events: none; stroke-width: 1; fill: rgb(182, 30, 62); fill-opacity: 1; stroke: rgb(255, 255, 255); stroke-opacity: 1; opacity: 1;"/><g class="slicetext"><text data-notex="1" class="slicetext" text-anchor="start" x="0" y="0" style="font-family: 'Open Sans', verdana, arial, sans-serif; font-size: 15px; fill: rgb(255, 255, 255); fill-opacity: 1; white-space: pre;" transform="translate(437.23125000000005,92.29628081905558)scale(0.28641872127037205)">Grundlagen R Programmieren</text></g></g><g class="slice cursor-pointer"><path class="surface" d="M360.975,235.46153846153845a5,5 0 0 1 5,-5L499.4875,230.46153846153845a5,5 0 0 1 5,5L504.4875,295.1923076923077a5,5 0 0 1 -5,5L365.975,300.1923076923077a5,5 0 0 1 -5,-5Z" style="pointer-events: none; stroke-width: 1; fill: rgb(182, 30, 62); fill-opacity: 1; stroke: rgb(255, 255, 255); stroke-opacity: 1; opacity: 1;"/><g class="slicetext"><text data-notex="1" class="slicetext" text-anchor="start" x="0" y="0" style="font-family: 'Open Sans', verdana, arial, sans-serif; font-size: 15px; fill: rgb(255, 255, 255); fill-opacity: 1; white-space: pre;" transform="translate(364.975,248.46153846153845)">Tidyverse</text></g></g><g class="slice cursor-pointer"><path class="surface" d="M522.4875,90a5,5 0 0 1 5,-5L655,85a5,5 0 0 1 5,5L660,149.73076923076923a5,5 0 0 1 -5,5L527.4875,154.73076923076923a5,5 0 0 1 -5,-5Z" style="pointer-events: none; stroke-width: 1; fill: rgb(182, 30, 62); fill-opacity: 1; stroke: rgb(255, 255, 255); stroke-opacity: 1; opacity: 1;"/><g class="slicetext"><text data-notex="1" class="slicetext" text-anchor="start" x="0" y="0" style="font-family: 'Open Sans', verdana, arial, sans-serif; font-size: 15px; fill: rgb(255, 255, 255); fill-opacity: 1; white-space: pre;" transform="translate(525.4875,103)">NLTK</text></g></g><g class="slice cursor-pointer"><path class="surface" d="M522.4875,162.73076923076923a5,5 0 0 1 5,-5L655,157.73076923076923a5,5 0 0 1 5,5L660,222.46153846153845a5,5 0 0 1 -5,5L527.4875,227.46153846153845a5,5 0 0 1 -5,-5Z" style="pointer-events: none; stroke-width: 1; fill: rgb(182, 30, 62); fill-opacity: 1; stroke: rgb(255, 255, 255); stroke-opacity: 1; opacity: 1;"/><g class="slicetext"><text data-notex="1" class="slicetext" text-anchor="start" x="0" y="0" style="font-family: 'Open Sans', verdana, arial, sans-serif; font-size: 15px; fill: rgb(255, 255, 255); fill-opacity: 1; white-space: pre;" transform="translate(525.4875,170.98016036569373)scale(0.6832927423283)">Sonstige DH-Bibliotheken</text></g></g><g class="slice cursor-pointer"><path class="surface" d="M522.4875,235.46153846153845a5,5 0 0 1 5,-5L655,230.46153846153845a5,5 0 0 1 5,5L660,295.1923076923077a5,5 0 0 1 -5,5L527.4875,300.1923076923077a5,5 0 0 1 -5,-5Z" style="pointer-events: none; stroke-width: 1; fill: rgb(182, 30, 62); fill-opacity: 1; stroke: rgb(255, 255, 255); stroke-opacity: 1; opacity: 1;"/><g class="slicetext"><text data-notex="1" class="slicetext" text-anchor="start" x="0" y="0" style="font-family: 'Open Sans', verdana, arial, sans-serif; font-size: 15px; fill: rgb(255, 255, 255); fill-opacity: 1; white-space: pre;" transform="translate(525.4875,248.46153846153845)">Spacy</text></g></g><g class="slice cursor-pointer"><path class="surface" d="M263.3,345.6923076923077a5,5 0 0 1 5,-5L333.24,340.6923076923077a5,5 0 0 1 5,5L338.24,455a5,5 0 0 1 -5,5L268.3,460a5,5 0 0 1 -5,-5Z" style="pointer-events: none; stroke-width: 1; fill: rgb(182, 30, 62); fill-opacity: 1; stroke: rgb(255, 255, 255); stroke-opacity: 1; opacity: 1;"/><g class="slicetext"><text data-notex="1" class="slicetext" text-anchor="start" x="0" y="0" style="font-family: 'Open Sans', verdana, arial, sans-serif; font-size: 15px; fill: rgb(255, 255, 255); fill-opacity: 1; white-space: pre;" transform="translate(266.3,349.6077885646709)scale(0.39436539149088307)"><tspan class="line" dy="0em" x="0" y="0">Web-Frontend zur</tspan><tspan class="line" dy="1.3em" x="0" y="0">Suche und Anzeige</tspan><tspan class="line" dy="2.6em" x="0" y="0">von Datenbankinhalten</tspan><tspan class="line" dy="3.9000000000000004em" x="0" y="0">(z.B. Dashbord)</tspan></text></g></g><g class="slice cursor-pointer"><path class="surface" d="M341.24,345.6923076923077a5,5 0 0 1 5,-5L411.18,340.6923076923077a5,5 0 0 1 5,5L416.18,455a5,5 0 0 1 -5,5L346.24,460a5,5 0 0 1 -5,-5Z" style="pointer-events: none; stroke-width: 1; fill: rgb(182, 30, 62); fill-opacity: 1; stroke: rgb(255, 255, 255); stroke-opacity: 1; opacity: 1;"/><g class="slicetext"><text data-notex="1" class="slicetext" text-anchor="start" x="0" y="0" style="font-family: 'Open Sans', verdana, arial, sans-serif; font-size: 15px; fill: rgb(255, 255, 255); fill-opacity: 1; white-space: pre;" transform="translate(344.24,349.6974251952566)scale(0.40034116686326104)"><tspan class="line" dy="0em" x="0" y="0">Web-Programmierung/</tspan><tspan class="line" dy="1.3em" x="0" y="0">-Frameworks (Django,</tspan><tspan class="line" dy="2.6em" x="0" y="0">Flask, etc.)</tspan></text></g></g><g class="slice cursor-pointer"><path class="surface" d="M419.18,345.6923076923077a5,5 0 0 1 5,-5L489.12,340.6923076923077a5,5 0 0 1 5,5L494.12,455a5,5 0 0 1 -5,5L424.18,460a5,5 0 0 1 -5,-5Z" style="pointer-events: none; stroke-width: 1; fill: rgb(182, 30, 62); fill-opacity: 1; stroke: rgb(255, 255, 255); stroke-opacity: 1; opacity: 1;"/><g class="slicetext"><text data-notex="1" class="slicetext" text-anchor="start" x="0" y="0" style="font-family: 'Open Sans', verdana, arial, sans-serif; font-size: 15px; fill: rgb(255, 255, 255); fill-opacity: 1; white-space: pre;" transform="translate(422.18,350.0261578215067)scale(0.4222566752799311)"><tspan class="line" dy="0em" x="0" y="0">Webseiten (HTML,</tspan><tspan class="line" dy="1.3em" x="0" y="0">CSS, PHP, JavaScript)</tspan></text></g></g><g class="slice cursor-pointer"><path class="surface" d="M512.12,345.6923076923077a5,5 0 0 1 5,-5L579.56,340.6923076923077a5,5 0 0 1 5,5L584.56,455a5,5 0 0 1 -5,5L517.12,460a5,5 0 0 1 -5,-5Z" style="pointer-events: none; stroke-width: 1; fill: rgb(182, 30, 62); fill-opacity: 1; stroke: rgb(255, 255, 255); stroke-opacity: 1; opacity: 1;"/><g class="slicetext"><text data-notex="1" class="slicetext" text-anchor="start" x="0" y="0" style="font-family: 'Open Sans', verdana, arial, sans-serif; font-size: 15px; fill: rgb(255, 255, 255); fill-opacity: 1; white-space: pre;" transform="translate(515.12,358.6923076923077)">Java </text></g></g><g class="slice cursor-pointer"><path class="surface" d="M587.56,345.6923076923077a5,5 0 0 1 5,-5L655,340.6923076923077a5,5 0 0 1 5,5L660,455a5,5 0 0 1 -5,5L592.56,460a5,5 0 0 1 -5,-5Z" style="pointer-events: none; stroke-width: 1; fill: rgb(182, 30, 62); fill-opacity: 1; stroke: rgb(255, 255, 255); stroke-opacity: 1; opacity: 1;"/><g class="slicetext"><text data-notex="1" class="slicetext" text-anchor="start" x="0" y="0" style="font-family: 'Open Sans', verdana, arial, sans-serif; font-size: 15px; fill: rgb(255, 255, 255); fill-opacity: 1; white-space: pre;" transform="translate(590.56,348.2488443404003)scale(0.3037691098728392)">UNIX/Linux: Script-Sprachen</text></g></g></g></g><g class="sunburstlayer"/><g class="glimages"/><defs id="topdefs-5e5c0d"><g class="clips"/></defs><g class="layer-above"><g class="imagelayer"/><g class="shapelayer"/></g><g class="infolayer"><g class="g-gtitle"/></g></svg>