<svg class="main-svg" xmlns="http://www.w3.org/2000/svg" xmlns:xlink="http://www.w3.org/1999/xlink" width="700" height="500" style="" viewBox="0 0 700 500"><rect x="0" y="0" width="700" height="500" style="fill: rgb(255, 255, 255); fill-opacity: 1;"/><defs id="defs-dd37d1"><g class="clips"/><g class="gradients"/><g class="patterns"/></defs><g class="bglayer"/><g class="layer-below"><g class="imagelayer"/><g class="shapelayer"/></g><g class="cartesianlayer"/><g class="polarlayer"/><g class="smithlayer"/><g class="ternarylayer"/><g class="geolayer"/><g class="funnelarealayer"/><g class="pielayer"/><g class="iciclelayer"/><g class="treemaplayer"><g class="trace treemap" style="opacity: 1;"><g class="slice cursor-pointer"><path class="surface" d="M25,30a5,5 0 0 1 5,-5L670,25a5,5 0 0 1 5,5L675,470a5,5 0 0 1 -5,5L30,475a5,5 0 0 1 -5,-5Z" style="pointer-events: none; stroke-width: 0; fill: rgb(0, 0, 0); fill-opacity: 0; stroke: rgb(0, 0, 0); stroke-opacity: 0; opacity: 100;"/><g class="slicetext"><text data-notex="1" class="slicetext" text-anchor="start" x="0" y="0" style="font-family: 'Open Sans', verdana, arial, sans-serif; font-size: 15px; fill: rgb(0, 0, 0); fill-opacity: 1; white-space: pre;" transform="translate(32.5,43)">Statistik für DH</text></g></g><g class="slice cursor-pointer"><path class="surface" d="M32.5,60a5,5 0 0 1 5,-5L378.94444444444446,55a5,5 0 0 1 5,5L383.94444444444446,462.5a5,5 0 0 1 -5,5L37.5,467.5a5,5 0 0 1 -5,-5Z" style="pointer-events: none; stroke-width: 1; fill: rgb(67, 92, 123); fill-opacity: 1; stroke: rgb(255, 255, 255); stroke-opacity: 1; opacity: 1;"/><g class="slicetext"><text data-notex="1" class="slicetext" text-anchor="start" x="0" y="0" style="font-family: 'Open Sans', verdana, arial, sans-serif; font-size: 15px; fill: rgb(255, 255, 255); fill-opacity: 1; white-space: pre;" transform="translate(40,73)">Statistik Fortgeschritten</text></g></g><g class="slice cursor-pointer"><path class="surface" d="M386.94444444444446,60a5,5 0 0 1 5,-5L662.5,55a5,5 0 0 1 5,5L667.5,462.5a5,5 0 0 1 -5,5L391.94444444444446,467.5a5,5 0 0 1 -5,-5Z" style="pointer-events: none; stroke-width: 1; fill: rgb(67, 92, 123); fill-opacity: 1; stroke: rgb(255, 255, 255); stroke-opacity: 1; opacity: 1;"/><g class="slicetext"><text data-notex="1" class="slicetext" text-anchor="start" x="0" y="0" style="font-family: 'Open Sans', verdana, arial, sans-serif; font-size: 15px; fill: rgb(255, 255, 255); fill-opacity: 1; white-space: pre;" transform="translate(394.44444444444446,73)">Statistik Grundlagen</text></g></g><g class="slice cursor-pointer"><path class="surface" d="M40,90a5,5 0 0 1 5,-5L201.72222222222223,85a5,5 0 0 1 5,5L206.72222222222223,228.2a5,5 0 0 1 -5,5L45,233.2a5,5 0 0 1 -5,-5Z" style="pointer-events: none; stroke-width: 1; fill: rgb(23, 54, 92); fill-opacity: 1; stroke: rgb(255, 255, 255); stroke-opacity: 1; opacity: 1;"/><g class="slicetext"><text data-notex="1" class="slicetext" text-anchor="start" x="0" y="0" style="font-family: 'Open Sans', verdana, arial, sans-serif; font-size: 15px; fill: rgb(255, 255, 255); fill-opacity: 1; white-space: pre;" transform="translate(43,103)"><tspan class="line" dy="0em" x="0" y="0">Datenanalyse und</tspan><tspan class="line" dy="1.3em" x="0" y="0">Machine Learning</tspan></text></g></g><g class="slice cursor-pointer"><path class="surface" d="M209.72222222222223,90a5,5 0 0 1 5,-5L371.44444444444446,85a5,5 0 0 1 5,5L376.44444444444446,228.2a5,5 0 0 1 -5,5L214.72222222222223,233.2a5,5 0 0 1 -5,-5Z" style="pointer-events: none; stroke-width: 1; fill: rgb(23, 54, 92); fill-opacity: 1; stroke: rgb(255, 255, 255); stroke-opacity: 1; opacity: 1;"/><g class="slicetext"><text data-notex="1" class="slicetext" text-anchor="start" x="0" y="0" style="font-family: 'Open Sans', verdana, arial, sans-serif; font-size: 15px; fill: rgb(255, 255, 255); fill-opacity: 1; white-space: pre;" transform="translate(212.72222222222223,98.95055594984623)scale(0.7300370633230818)"><tspan class="line" dy="0em" x="0" y="0">Design und Implementierung</tspan><tspan class="line" dy="1.3em" x="0" y="0">statistischer Modelle</tspan></text></g></g><g class="slice cursor-pointer"><path class="surface" d="M40,241.2a5,5 0 0 1 5,-5L258.2962962962963,236.2a5,5 0 0 1 5,5L263.2962962962963,341.6a5,5 0 0 1 -5,5L45,346.6a5,5 0 0 1 -5,-5Z" style="pointer-events: none; stroke-width: 1; fill: rgb(23, 54, 92); fill-opacity: 1; stroke: rgb(255, 255, 255); stroke-opacity: 1; opacity: 1;"/><g class="slicetext"><text data-notex="1" class="slicetext" text-anchor="start" x="0" y="0" style="font-family: 'Open Sans', verdana, arial, sans-serif; font-size: 15px; fill: rgb(255, 255, 255); fill-opacity: 1; white-space: pre;" transform="translate(43,254.2)"><tspan class="line" dy="0em" x="0" y="0">Klassifikation:</tspan><tspan class="line" dy="1.3em" x="0" y="0">Beispielcode (z.B.</tspan><tspan class="line" dy="2.6em" x="0" y="0">in Python oder R)</tspan></text></g></g><g class="slice cursor-pointer"><path class="surface" d="M40,354.6a5,5 0 0 1 5,-5L258.2962962962963,349.6a5,5 0 0 1 5,5L263.2962962962963,455a5,5 0 0 1 -5,5L45,460a5,5 0 0 1 -5,-5Z" style="pointer-events: none; stroke-width: 1; fill: rgb(23, 54, 92); fill-opacity: 1; stroke: rgb(255, 255, 255); stroke-opacity: 1; opacity: 1;"/><g class="slicetext"><text data-notex="1" class="slicetext" text-anchor="start" x="0" y="0" style="font-family: 'Open Sans', verdana, arial, sans-serif; font-size: 15px; fill: rgb(255, 255, 255); fill-opacity: 1; white-space: pre;" transform="translate(43,367.6)"><tspan class="line" dy="0em" x="0" y="0">Klassifikation:</tspan><tspan class="line" dy="1.3em" x="0" y="0">KNN, SVM, etc</tspan></text></g></g><g class="slice cursor-pointer"><path class="surface" d="M266.2962962962963,241.2a5,5 0 0 1 5,-5L371.44444444444446,236.2a5,5 0 0 1 5,5L376.44444444444446,455a5,5 0 0 1 -5,5L271.2962962962963,460a5,5 0 0 1 -5,-5Z" style="pointer-events: none; stroke-width: 1; fill: rgb(23, 54, 92); fill-opacity: 1; stroke: rgb(255, 255, 255); stroke-opacity: 1; opacity: 1;"/><g class="slicetext"><text data-notex="1" class="slicetext" text-anchor="start" x="0" y="0" style="font-family: 'Open Sans', verdana, arial, sans-serif; font-size: 15px; fill: rgb(255, 255, 255); fill-opacity: 1; white-space: pre;" transform="translate(269.2962962962963,253.94011826953002)scale(0.9826745513020023)"><tspan class="line" dy="0em" x="0" y="0">Klassifikation:</tspan><tspan class="line" dy="1.3em" x="0" y="0">Naive Bayes</tspan></text></g></g><g class="slice cursor-pointer"><path class="surface" d="M394.44444444444446,90a5,5 0 0 1 5,-5L520.7222222222222,85a5,5 0 0 1 5,5L525.7222222222222,266a5,5 0 0 1 -5,5L399.44444444444446,271a5,5 0 0 1 -5,-5Z" style="pointer-events: none; stroke-width: 1; fill: rgb(23, 54, 92); fill-opacity: 1; stroke: rgb(255, 255, 255); stroke-opacity: 1; opacity: 1;"/><g class="slicetext"><text data-notex="1" class="slicetext" text-anchor="start" x="0" y="0" style="font-family: 'Open Sans', verdana, arial, sans-serif; font-size: 15px; fill: rgb(255, 255, 255); fill-opacity: 1; white-space: pre;" transform="translate(397.44444444444446,98.72182104543698)scale(0.714788069695799)"><tspan class="line" dy="0em" x="0" y="0">Graphische Darstellung</tspan><tspan class="line" dy="1.3em" x="0" y="0">(welche Daten, welche</tspan><tspan class="line" dy="2.6em" x="0" y="0">Darstellung, Fehler)</tspan></text></g></g><g class="slice cursor-pointer"><path class="surface" d="M528.7222222222222,90a5,5 0 0 1 5,-5L655,85a5,5 0 0 1 5,5L660,266a5,5 0 0 1 -5,5L533.7222222222222,271a5,5 0 0 1 -5,-5Z" style="pointer-events: none; stroke-width: 1; fill: rgb(23, 54, 92); fill-opacity: 1; stroke: rgb(255, 255, 255); stroke-opacity: 1; opacity: 1;"/><g class="slicetext"><text data-notex="1" class="slicetext" text-anchor="start" x="0" y="0" style="font-family: 'Open Sans', verdana, arial, sans-serif; font-size: 15px; fill: rgb(255, 255, 255); fill-opacity: 1; white-space: pre;" transform="translate(531.7222222222222,98.53584464885384)scale(0.7023896432569231)">Korrelation &amp; Kausalität</text></g></g><g class="slice cursor-pointer"><path class="surface" d="M394.44444444444446,279a5,5 0 0 1 5,-5L520.7222222222222,274a5,5 0 0 1 5,5L525.7222222222222,455a5,5 0 0 1 -5,5L399.44444444444446,460a5,5 0 0 1 -5,-5Z" style="pointer-events: none; stroke-width: 1; fill: rgb(23, 54, 92); fill-opacity: 1; stroke: rgb(255, 255, 255); stroke-opacity: 1; opacity: 1;"/><g class="slicetext"><text data-notex="1" class="slicetext" text-anchor="start" x="0" y="0" style="font-family: 'Open Sans', verdana, arial, sans-serif; font-size: 15px; fill: rgb(255, 255, 255); fill-opacity: 1; white-space: pre;" transform="translate(397.44444444444446,285.6429512516469)scale(0.5761967501097935)"><tspan class="line" dy="0em" x="0" y="0">Schätzer, Konfidenzintervalle</tspan><tspan class="line" dy="1.3em" x="0" y="0">&amp; Hypothesentests</tspan></text></g></g><g class="slice cursor-pointer"><path class="surface" d="M528.7222222222222,279a5,5 0 0 1 5,-5L655,274a5,5 0 0 1 5,5L660,455a5,5 0 0 1 -5,5L533.7222222222222,460a5,5 0 0 1 -5,-5Z" style="pointer-events: none; stroke-width: 1; fill: rgb(23, 54, 92); fill-opacity: 1; stroke: rgb(255, 255, 255); stroke-opacity: 1; opacity: 1;"/><g class="slicetext"><text data-notex="1" class="slicetext" text-anchor="start" x="0" y="0" style="font-family: 'Open Sans', verdana, arial, sans-serif; font-size: 15px; fill: rgb(255, 255, 255); fill-opacity: 1; white-space: pre;" transform="translate(531.7222222222222,292)">Skalenniveaus</text></g></g></g></g><g class="sunburstlayer"/><g class="glimages"/><defs id="topdefs-dd37d1"><g class="clips"/></defs><g class="layer-above"><g class="imagelayer"/><g class="shapelayer"/></g><g class="infolayer"><g class="g-gtitle"/></g></svg>