<svg class="main-svg" xmlns="http://www.w3.org/2000/svg" xmlns:xlink="http://www.w3.org/1999/xlink" width="700" height="500" style="" viewBox="0 0 700 500"><rect x="0" y="0" width="700" height="500" style="fill: rgb(255, 255, 255); fill-opacity: 1;"/><defs id="defs-9c8a36"><g class="clips"/><g class="gradients"/><g class="patterns"/></defs><g class="bglayer"/><g class="layer-below"><g class="imagelayer"/><g class="shapelayer"/></g><g class="cartesianlayer"/><g class="polarlayer"/><g class="smithlayer"/><g class="ternarylayer"/><g class="geolayer"/><g class="funnelarealayer"/><g class="pielayer"/><g class="iciclelayer"/><g class="treemaplayer"><g class="trace treemap" style="opacity: 1;"><g class="slice cursor-pointer"><path class="surface" d="M25,30a5,5 0 0 1 5,-5L670,25a5,5 0 0 1 5,5L675,470a5,5 0 0 1 -5,5L30,475a5,5 0 0 1 -5,-5Z" style="pointer-events: none; stroke-width: 0; fill: rgb(0, 0, 0); fill-opacity: 0; stroke: rgb(0, 0, 0); stroke-opacity: 0; opacity: 100;"/><g class="slicetext"><text data-notex="1" class="slicetext" text-anchor="start" x="0" y="0" style="font-family: 'Open Sans', verdana, arial, sans-serif; font-size: 15px; fill: rgb(0, 0, 0); fill-opacity: 1; white-space: pre;" transform="translate(32.5,43)">Umgang mit dem PC</text></g></g><g class="slice cursor-pointer"><path class="surface" d="M32.5,60a5,5 0 0 1 5,-5L389.07142857142856,55a5,5 0 0 1 5,5L394.07142857142856,462.5a5,5 0 0 1 -5,5L37.5,467.5a5,5 0 0 1 -5,-5Z" style="pointer-events: none; stroke-width: 1; fill: rgb(241, 140, 50); fill-opacity: 1; stroke: rgb(255, 255, 255); stroke-opacity: 1; opacity: 1;"/><g class="slicetext"><text data-notex="1" class="slicetext" text-anchor="start" x="0" y="0" style="font-family: 'Open Sans', verdana, arial, sans-serif; font-size: 15px; fill: rgb(68, 68, 68); fill-opacity: 1; white-space: pre;" transform="translate(40,73)">PC Fortgeschritten</text></g></g><g class="slice cursor-pointer"><path class="surface" d="M397.07142857142856,60a5,5 0 0 1 5,-5L662.5,55a5,5 0 0 1 5,5L667.5,462.5a5,5 0 0 1 -5,5L402.07142857142856,467.5a5,5 0 0 1 -5,-5Z" style="pointer-events: none; stroke-width: 1; fill: rgb(241, 140, 50); fill-opacity: 1; stroke: rgb(255, 255, 255); stroke-opacity: 1; opacity: 1;"/><g class="slicetext"><text data-notex="1" class="slicetext" text-anchor="start" x="0" y="0" style="font-family: 'Open Sans', verdana, arial, sans-serif; font-size: 15px; fill: rgb(68, 68, 68); fill-opacity: 1; white-space: pre;" transform="translate(404.57142857142856,73)">PC Grundlagen</text></g></g><g class="slice cursor-pointer"><path class="surface" d="M40,90a5,5 0 0 1 5,-5L148.52380952380952,85a5,5 0 0 1 5,5L153.52380952380952,218.75a5,5 0 0 1 -5,5L45,223.75a5,5 0 0 1 -5,-5Z" style="pointer-events: none; stroke-width: 1; fill: rgb(237, 113, 2); fill-opacity: 1; stroke: rgb(255, 255, 255); stroke-opacity: 1; opacity: 1;"/><g class="slicetext"><text data-notex="1" class="slicetext" text-anchor="start" x="0" y="0" style="font-family: 'Open Sans', verdana, arial, sans-serif; font-size: 15px; fill: rgb(68, 68, 68); fill-opacity: 1; white-space: pre;" transform="translate(43.48169703272601,95.22545549089018)scale(0.4816970327260121)"><tspan class="line" dy="0em" x="0" y="0">Aufbau/Administration</tspan><tspan class="line" dy="1.3em" x="0" y="0">von Client-Server-Architektur</tspan></text></g></g><g class="slice cursor-pointer"><path class="surface" d="M156.52380952380952,90a5,5 0 0 1 5,-5L265.04761904761904,85a5,5 0 0 1 5,5L270.04761904761904,218.75a5,5 0 0 1 -5,5L161.52380952380952,223.75a5,5 0 0 1 -5,-5Z" style="pointer-events: none; stroke-width: 1; fill: rgb(237, 113, 2); fill-opacity: 1; stroke: rgb(255, 255, 255); stroke-opacity: 1; opacity: 1;"/><g class="slicetext"><text data-notex="1" class="slicetext" text-anchor="start" x="0" y="0" style="font-family: 'Open Sans', verdana, arial, sans-serif; font-size: 15px; fill: rgb(68, 68, 68); fill-opacity: 1; white-space: pre;" transform="translate(159.52380952380952,100.15816927477705)scale(0.8105446183184699)"><tspan class="line" dy="0em" x="0" y="0">Containerisierung</tspan><tspan class="line" dy="1.3em" x="0" y="0">(z.B. Docker)</tspan></text></g></g><g class="slice cursor-pointer"><path class="surface" d="M273.04761904761904,90a5,5 0 0 1 5,-5L381.57142857142856,85a5,5 0 0 1 5,5L386.57142857142856,218.75a5,5 0 0 1 -5,5L278.04761904761904,223.75a5,5 0 0 1 -5,-5Z" style="pointer-events: none; stroke-width: 1; fill: rgb(237, 113, 2); fill-opacity: 1; stroke: rgb(255, 255, 255); stroke-opacity: 1; opacity: 1;"/><g class="slicetext"><text data-notex="1" class="slicetext" text-anchor="start" x="0" y="0" style="font-family: 'Open Sans', verdana, arial, sans-serif; font-size: 15px; fill: rgb(68, 68, 68); fill-opacity: 1; white-space: pre;" transform="translate(276.04761904761904,100.83547092052439)scale(0.8556980613682926)">LaTex (Overleaf)</text></g></g><g class="slice cursor-pointer"><path class="surface" d="M40,231.75a5,5 0 0 1 5,-5L171.82857142857142,226.75a5,5 0 0 1 5,5L176.82857142857142,336.875a5,5 0 0 1 -5,5L45,341.875a5,5 0 0 1 -5,-5Z" style="pointer-events: none; stroke-width: 1; fill: rgb(237, 113, 2); fill-opacity: 1; stroke: rgb(255, 255, 255); stroke-opacity: 1; opacity: 1;"/><g class="slicetext"><text data-notex="1" class="slicetext" text-anchor="start" x="0" y="0" style="font-family: 'Open Sans', verdana, arial, sans-serif; font-size: 15px; fill: rgb(68, 68, 68); fill-opacity: 1; white-space: pre;" transform="translate(43,243.7345706014284)scale(0.9323047067618941)"><tspan class="line" dy="0em" x="0" y="0">Quellenverwaltung</tspan><tspan class="line" dy="1.3em" x="0" y="0">(mit Zotero, etc.)</tspan></text></g></g><g class="slice cursor-pointer"><path class="surface" d="M40,349.875a5,5 0 0 1 5,-5L171.82857142857142,344.875a5,5 0 0 1 5,5L176.82857142857142,455a5,5 0 0 1 -5,5L45,460a5,5 0 0 1 -5,-5Z" style="pointer-events: none; stroke-width: 1; fill: rgb(237, 113, 2); fill-opacity: 1; stroke: rgb(255, 255, 255); stroke-opacity: 1; opacity: 1;"/><g class="slicetext"><text data-notex="1" class="slicetext" text-anchor="start" x="0" y="0" style="font-family: 'Open Sans', verdana, arial, sans-serif; font-size: 15px; fill: rgb(68, 68, 68); fill-opacity: 1; white-space: pre;" transform="translate(43,359.1421955298671)scale(0.7511463686578067)"><tspan class="line" dy="0em" x="0" y="0">Shell Fortgeschritten:</tspan><tspan class="line" dy="1.3em" x="0" y="0">shell scripts, variablen,</tspan><tspan class="line" dy="2.6em" x="0" y="0">editor in der shell,</tspan><tspan class="line" dy="3.9000000000000004em" x="0" y="0">remote access/ssh</tspan></text></g></g><g class="slice cursor-pointer"><path class="surface" d="M179.82857142857142,231.75a5,5 0 0 1 5,-5L276.7,226.75a5,5 0 0 1 5,5L281.7,376.25a5,5 0 0 1 -5,5L184.82857142857142,381.25a5,5 0 0 1 -5,-5Z" style="pointer-events: none; stroke-width: 1; fill: rgb(237, 113, 2); fill-opacity: 1; stroke: rgb(255, 255, 255); stroke-opacity: 1; opacity: 1;"/><g class="slicetext"><text data-notex="1" class="slicetext" text-anchor="start" x="0" y="0" style="font-family: 'Open Sans', verdana, arial, sans-serif; font-size: 15px; fill: rgb(68, 68, 68); fill-opacity: 1; white-space: pre;" transform="translate(182.82857142857142,237.28965523294596)scale(0.5026436821963979)"><tspan class="line" dy="0em" x="0" y="0">UNIX/Linux: Grundlagen,</tspan><tspan class="line" dy="1.3em" x="0" y="0">Betriebssystem</tspan></text></g></g><g class="slice cursor-pointer"><path class="surface" d="M284.7,231.75a5,5 0 0 1 5,-5L381.57142857142856,226.75a5,5 0 0 1 5,5L386.57142857142856,376.25a5,5 0 0 1 -5,5L289.7,381.25a5,5 0 0 1 -5,-5Z" style="pointer-events: none; stroke-width: 1; fill: rgb(237, 113, 2); fill-opacity: 1; stroke: rgb(255, 255, 255); stroke-opacity: 1; opacity: 1;"/><g class="slicetext"><text data-notex="1" class="slicetext" text-anchor="start" x="0" y="0" style="font-family: 'Open Sans', verdana, arial, sans-serif; font-size: 15px; fill: rgb(68, 68, 68); fill-opacity: 1; white-space: pre;" transform="translate(287.7,235.37639512339965)scale(0.3750930082266431)">UNIX/Linux: Serveradministration</text></g></g><g class="slice cursor-pointer"><path class="surface" d="M179.82857142857142,389.25a5,5 0 0 1 5,-5L381.57142857142856,384.25a5,5 0 0 1 5,5L386.57142857142856,455a5,5 0 0 1 -5,5L184.82857142857142,460a5,5 0 0 1 -5,-5Z" style="pointer-events: none; stroke-width: 1; fill: rgb(237, 113, 2); fill-opacity: 1; stroke: rgb(255, 255, 255); stroke-opacity: 1; opacity: 1;"/><g class="slicetext"><text data-notex="1" class="slicetext" text-anchor="start" x="0" y="0" style="font-family: 'Open Sans', verdana, arial, sans-serif; font-size: 15px; fill: rgb(68, 68, 68); fill-opacity: 1; white-space: pre;" transform="translate(183.82857142857142,402.25)"><tspan class="line" dy="0em" x="0" y="0">Versionskontrolle</tspan><tspan class="line" dy="1.3em" x="0" y="0">mit git</tspan></text></g></g><g class="slice cursor-pointer"><path class="surface" d="M404.57142857142856,90a5,5 0 0 1 5,-5L525.7857142857142,85a5,5 0 0 1 5,5L530.7857142857142,203a5,5 0 0 1 -5,5L409.57142857142856,208a5,5 0 0 1 -5,-5Z" style="pointer-events: none; stroke-width: 1; fill: rgb(237, 113, 2); fill-opacity: 1; stroke: rgb(255, 255, 255); stroke-opacity: 1; opacity: 1;"/><g class="slicetext"><text data-notex="1" class="slicetext" text-anchor="start" x="0" y="0" style="font-family: 'Open Sans', verdana, arial, sans-serif; font-size: 15px; fill: rgb(68, 68, 68); fill-opacity: 1; white-space: pre;" transform="translate(407.57142857142856,99.90486014913496)scale(0.793657343275664)"><tspan class="line" dy="0em" x="0" y="0">Computer-Probleme</tspan><tspan class="line" dy="1.3em" x="0" y="0">selber lösen (richtig</tspan><tspan class="line" dy="2.6em" x="0" y="0">googlen, Tutorials</tspan><tspan class="line" dy="3.9000000000000004em" x="0" y="0">befolgen)</tspan></text></g></g><g class="slice cursor-pointer"><path class="surface" d="M533.7857142857142,90a5,5 0 0 1 5,-5L655,85a5,5 0 0 1 5,5L660,203a5,5 0 0 1 -5,5L538.7857142857142,208a5,5 0 0 1 -5,-5Z" style="pointer-events: none; stroke-width: 1; fill: rgb(237, 113, 2); fill-opacity: 1; stroke: rgb(255, 255, 255); stroke-opacity: 1; opacity: 1;"/><g class="slicetext"><text data-notex="1" class="slicetext" text-anchor="start" x="0" y="0" style="font-family: 'Open Sans', verdana, arial, sans-serif; font-size: 15px; fill: rgb(68, 68, 68); fill-opacity: 1; white-space: pre;" transform="translate(537.2112045127751,94.38235340591275)scale(0.4254902270608498)"><tspan class="line" dy="0em" x="0" y="0">Dateien - Ordnerstruktur/-hierarchie,</tspan><tspan class="line" dy="1.3em" x="0" y="0">Pfade, Benennung,</tspan><tspan class="line" dy="2.6em" x="0" y="0">Arten, Umwandeln</tspan></text></g></g><g class="slice cursor-pointer"><path class="surface" d="M404.57142857142856,216a5,5 0 0 1 5,-5L525.7857142857142,211a5,5 0 0 1 5,5L530.7857142857142,329a5,5 0 0 1 -5,5L409.57142857142856,334a5,5 0 0 1 -5,-5Z" style="pointer-events: none; stroke-width: 1; fill: rgb(237, 113, 2); fill-opacity: 1; stroke: rgb(255, 255, 255); stroke-opacity: 1; opacity: 1;"/><g class="slicetext"><text data-notex="1" class="slicetext" text-anchor="start" x="0" y="0" style="font-family: 'Open Sans', verdana, arial, sans-serif; font-size: 15px; fill: rgb(68, 68, 68); fill-opacity: 1; white-space: pre;" transform="translate(407.57142857142856,227.00932412193825)scale(0.8672882747958839)"><tspan class="line" dy="0em" x="0" y="0">Shell Grundlagen:</tspan><tspan class="line" dy="1.3em" x="0" y="0">Was ist die Shell?,</tspan><tspan class="line" dy="2.6em" x="0" y="0">Unix vs. Windows,</tspan><tspan class="line" dy="3.9000000000000004em" x="0" y="0">simple Befehle</tspan></text></g></g><g class="slice cursor-pointer"><path class="surface" d="M404.57142857142856,342a5,5 0 0 1 5,-5L525.7857142857142,337a5,5 0 0 1 5,5L530.7857142857142,455a5,5 0 0 1 -5,5L409.57142857142856,460a5,5 0 0 1 -5,-5Z" style="pointer-events: none; stroke-width: 1; fill: rgb(237, 113, 2); fill-opacity: 1; stroke: rgb(255, 255, 255); stroke-opacity: 1; opacity: 1;"/><g class="slicetext"><text data-notex="1" class="slicetext" text-anchor="start" x="0" y="0" style="font-family: 'Open Sans', verdana, arial, sans-serif; font-size: 15px; fill: rgb(68, 68, 68); fill-opacity: 1; white-space: pre;" transform="translate(408.2868567177661,350.73142219506366)scale(0.7154281463375755)"><tspan class="line" dy="0em" x="0" y="0">Tabellenkalkulation</tspan><tspan class="line" dy="1.3em" x="0" y="0">- Excel/Google Sheets</tspan></text></g></g><g class="slice cursor-pointer"><path class="surface" d="M533.7857142857142,216a5,5 0 0 1 5,-5L655,211a5,5 0 0 1 5,5L660,329a5,5 0 0 1 -5,5L538.7857142857142,334a5,5 0 0 1 -5,-5Z" style="pointer-events: none; stroke-width: 1; fill: rgb(237, 113, 2); fill-opacity: 1; stroke: rgb(255, 255, 255); stroke-opacity: 1; opacity: 1;"/><g class="slicetext"><text data-notex="1" class="slicetext" text-anchor="start" x="0" y="0" style="font-family: 'Open Sans', verdana, arial, sans-serif; font-size: 15px; fill: rgb(68, 68, 68); fill-opacity: 1; white-space: pre;" transform="translate(537.7480300187617,228.4347359957116)scale(0.9623157330474404)"><tspan class="line" dy="0em" x="0" y="0">Tastaturkürzel &amp;</tspan><tspan class="line" dy="1.3em" x="0" y="0">Sonderzeichen</tspan></text></g></g><g class="slice cursor-pointer"><path class="surface" d="M533.7857142857142,342a5,5 0 0 1 5,-5L655,337a5,5 0 0 1 5,5L660,455a5,5 0 0 1 -5,5L538.7857142857142,460a5,5 0 0 1 -5,-5Z" style="pointer-events: none; stroke-width: 1; fill: rgb(237, 113, 2); fill-opacity: 1; stroke: rgb(255, 255, 255); stroke-opacity: 1; opacity: 1;"/><g class="slicetext"><text data-notex="1" class="slicetext" text-anchor="start" x="0" y="0" style="font-family: 'Open Sans', verdana, arial, sans-serif; font-size: 15px; fill: rgb(68, 68, 68); fill-opacity: 1; white-space: pre;" transform="translate(537.2576344406375,347.07880232384923)scale(0.4719201549232832)">Versionskontrolle/Datensicherung</text></g></g></g></g><g class="sunburstlayer"/><g class="glimages"/><defs id="topdefs-9c8a36"><g class="clips"/></defs><g class="layer-above"><g class="imagelayer"/><g class="shapelayer"/></g><g class="infolayer"><g class="g-gtitle"/></g></svg>